0
SECTION
2
HEADER
9
$INSUNITS
70
4
9
$ACADVER
1
AC1014
9
$HANDSEED
5
FFFF
0
ENDSEC
0
SECTION
2
TABLES
0
TABLE
2
VPORT
5
8
100
AcDbSymbolTable
0
ENDTAB
0
TABLE
2
LTYPE
5
5
100
AcDbSymbolTable
0
LTYPE
5
14
100
AcDbSymbolTableRecord
100
AcDbLinetypeTableRecord
2
BYBLOCK
70
0
0
LTYPE
5
15
100
AcDbSymbolTableRecord
100
AcDbLinetypeTableRecord
2
BYLAYER
70
0
0
ENDTAB
0
TABLE
2
LAYER
5
2
100
AcDbSymbolTable
70
2
0
LAYER
5
50
100
AcDbSymbolTableRecord
100
AcDbLayerTableRecord
2
0
70
0
6
CONTINUOUS
0
ENDTAB
0
TABLE
2
STYLE
5
3
100
AcDbSymbolTable
70
1
0
STYLE
5
11
100
AcDbSymbolTableRecord
100
AcDbTextStyleTableRecord
2
STANDARD
70
0
0
ENDTAB
0
TABLE
2
VIEW
5
6
100
AcDbSymbolTable
70
0
0
ENDTAB
0
TABLE
2
UCS
5
7
100
AcDbSymbolTable
70
0
0
ENDTAB
0
TABLE
2
APPID
5
9
100
AcDbSymbolTable
70
2
0
APPID
5
12
100
AcDbSymbolTableRecord
100
AcDbRegAppTableRecord
2
ACAD
70
0
0
ENDTAB
0
TABLE
2
DIMSTYLE
5
A
100
AcDbSymbolTable
70
1
0
ENDTAB
0
TABLE
2
BLOCK_RECORD
5
1
100
AcDbSymbolTable
70
1
0
BLOCK_RECORD
5
1F
100
AcDbSymbolTableRecord
100
AcDbBlockTableRecord
2
*MODEL_SPACE
0
BLOCK_RECORD
5
1B
100
AcDbSymbolTableRecord
100
AcDbBlockTableRecord
2
*PAPER_SPACE
0
ENDTAB
0
ENDSEC
0
SECTION
2
BLOCKS
0
BLOCK
5
20
100
AcDbEntity
100
AcDbBlockBegin
2
*MODEL_SPACE
0
ENDBLK
5
21
100
AcDbEntity
100
AcDbBlockEnd
0
BLOCK
5
1C
100
AcDbEntity
100
AcDbBlockBegin
2
*PAPER_SPACE
0
ENDBLK
5
1D
100
AcDbEntity
100
AcDbBlockEnd
0
ENDSEC
0
SECTION
2
ENTITIES
0
LWPOLYLINE
5
100
100
AcDbEntity
8
0
100
AcDbPolyline
90
36
70
1
43
0.0
10
-0.17620821061649503
20
-49.799528777922433
10
8.5872092087978462
20
-50.163380856783704
10
17.674912126280024
20
-49.703338672335313
10
27.414541999673489
20
-48.518349513846609
10
37.946761672039223
20
-46.134183822451
10
48.927070203414189
20
-41.825019852385751
10
59.594915014755436
20
-35.037547300852701
10
68.985209990398062
20
-25.608550866617932
10
76.172154967060706
20
-13.817030626307909
10
80.507320598857532
20
-0.29328710983025746
10
81.678891482704458
20
14.183159927876957
10
79.572162854527463
20
28.811902425451926
10
74.192477498336743
20
42.761162807276691
10
65.781702695148596
20
55.206282493601115
10
54.916297516374982
20
65.529913752541319
10
42.359923661186883
20
73.497384594675907
10
28.777629680907456
20
79.189005379075979
10
14.582221055898243
20
82.743047460375166
10
0.012739675041078657
20
84.113368709588514
10
-14.638645574638296
20
82.985133481782114
10
-28.80077985887538
20
78.909429765930483
10
-41.573302052835743
20
71.636937870620699
10
-51.969170603310815
20
61.456600884780613
10
-59.307681777851855
20
49.225490991007355
10
-63.409283460793915
20
36.041097271911589
10
-64.480347312017116
20
22.886244653480642
10
-62.908061310431322
20
10.495930699764202
10
-59.161984969942608
20
-0.61301147969791769
10
-53.814104071504474
20
-10.110572067163242
10
-47.580786310058045
20
-17.910617787759776
10
-41.233175326016621
20
-24.282980116335192
10
-35.266415632292684
20
-29.832213711753738
10
-29.557859999504164
20
-35.152808822937274
10
-23.50100673579389
20
-40.342886530546771
10
-16.557455185873742
20
-44.893790648738545
10
-8.6667952726442063
20
-48.137448081950836
0
LWPOLYLINE
5
101
100
AcDbEntity
8
0
100
AcDbPolyline
90
36
70
1
43
0.0
10
0.17620821061647726
20
-46.811576225234234
10
8.5735692190013815
20
-47.160229851282054
10
17.417591769947759
20
-46.712523374673829
10
26.90088078107253
20
-45.558722376989465
10
37.062553453871999
20
-43.25843695688495
10
47.5612378350244
20
-39.138283835587956
10
57.703905265682366
20
-32.684958163683682
10
66.608602498609514
20
-23.743560830053667
10
73.424454393136813
20
-12.560887826399423
10
77.54498339760589
20
0.29328710983025735
10
78.661476851285983
20
14.089173106138745
10
76.651120682176298
20
28.048722681237468
10
71.516054554398622
20
41.363697396595249
10
63.478789226295909
20
53.25614860347676
10
53.061963906294721
20
63.153567220002039
10
40.966651831289568
20
70.82847777901695
10
27.828160310812443
20
76.334124433564867
10
14.074546314262191
20
79.777556335029644
10
-0.012739675041070295
20
81.102525071408394
10
-14.103114980356015
20
80.017490617562601
10
-27.627278943967287
20
76.125387618537388
10
-39.751620768330412
20
69.221960377256849
10
-49.594905093653011
20
59.582751205586234
10
-56.550013905354575
20
47.990658725820687
10
-60.446111311052164
20
35.466848240201102
10
-61.4648972255264
20
22.954075505563253
10
-59.969632309905556
20
11.170722012729598
10
-56.40943827895299
20
0.61301147969792769
10
-51.319058163064
20
-8.4272410019914368
10
-45.339589598884814
20
-15.909633199921739
10
-39.14815979175917
20
-22.125205351734163
10
-33.222163613333542
20
-27.636527873107163
10
-27.558247376331657
20
-32.915517337211703
10
-21.695309778314392
20
-37.939429986852964
10
-15.152231685624384
20
-42.227858008679313
10
-7.7999658326861567
20
-45.250194802697251
0
ENDSEC
0
SECTION
2
OBJECTS
0
DICTIONARY
5
C
100
AcDbDictionary
3
ACAD_GROUP
350
D
3
ACAD_MLINESTYLE
350
17
0
DICTIONARY
5
D
100
AcDbDictionary
0
DICTIONARY
5
1A
330
C
100
AcDbDictionary
0
DICTIONARY
5
17
100
AcDbDictionary
0
ENDSEC
0
EOF
