0
SECTION
2
HEADER
9
$INSUNITS
70
4
9
$ACADVER
1
AC1014
9
$HANDSEED
5
FFFF
0
ENDSEC
0
SECTION
2
TABLES
0
TABLE
2
VPORT
5
8
100
AcDbSymbolTable
0
ENDTAB
0
TABLE
2
LTYPE
5
5
100
AcDbSymbolTable
0
LTYPE
5
14
100
AcDbSymbolTableRecord
100
AcDbLinetypeTableRecord
2
BYBLOCK
70
0
0
LTYPE
5
15
100
AcDbSymbolTableRecord
100
AcDbLinetypeTableRecord
2
BYLAYER
70
0
0
ENDTAB
0
TABLE
2
LAYER
5
2
100
AcDbSymbolTable
70
2
0
LAYER
5
50
100
AcDbSymbolTableRecord
100
AcDbLayerTableRecord
2
0
70
0
6
CONTINUOUS
0
ENDTAB
0
TABLE
2
STYLE
5
3
100
AcDbSymbolTable
70
1
0
STYLE
5
11
100
AcDbSymbolTableRecord
100
AcDbTextStyleTableRecord
2
STANDARD
70
0
0
ENDTAB
0
TABLE
2
VIEW
5
6
100
AcDbSymbolTable
70
0
0
ENDTAB
0
TABLE
2
UCS
5
7
100
AcDbSymbolTable
70
0
0
ENDTAB
0
TABLE
2
APPID
5
9
100
AcDbSymbolTable
70
2
0
APPID
5
12
100
AcDbSymbolTableRecord
100
AcDbRegAppTableRecord
2
ACAD
70
0
0
ENDTAB
0
TABLE
2
DIMSTYLE
5
A
100
AcDbSymbolTable
70
1
0
ENDTAB
0
TABLE
2
BLOCK_RECORD
5
1
100
AcDbSymbolTable
70
1
0
BLOCK_RECORD
5
1F
100
AcDbSymbolTableRecord
100
AcDbBlockTableRecord
2
*MODEL_SPACE
0
BLOCK_RECORD
5
1B
100
AcDbSymbolTableRecord
100
AcDbBlockTableRecord
2
*PAPER_SPACE
0
ENDTAB
0
ENDSEC
0
SECTION
2
BLOCKS
0
BLOCK
5
20
100
AcDbEntity
100
AcDbBlockBegin
2
*MODEL_SPACE
0
ENDBLK
5
21
100
AcDbEntity
100
AcDbBlockEnd
0
BLOCK
5
1C
100
AcDbEntity
100
AcDbBlockBegin
2
*PAPER_SPACE
0
ENDBLK
5
1D
100
AcDbEntity
100
AcDbBlockEnd
0
ENDSEC
0
SECTION
2
ENTITIES
0
LWPOLYLINE
5
100
100
AcDbEntity
8
0
100
AcDbPolyline
90
13
70
1
43
0.0
10
4.9999999999999796
20
27.295833015315736
10
4.9999999999999893
20
80.631055736713421
10
-0.012739675041069098
20
81.102525071408408
10
-14.103114980356018
20
80.017490617562601
10
-27.627278943967291
20
76.125387618537388
10
-39.751620768330412
20
69.221960377256849
10
-49.594905093652997
20
59.582751205586234
10
-56.550013905354568
20
47.990658725820694
10
-60.446111311052171
20
35.466848240201095
10
-61.4648972255264
20
22.954075505563249
10
-59.969632309905563
20
11.170722012729597
10
-57.888786504590698
20
4.9999999999999876
10
-17.295833015315747
20
5.0000000000000178
42
-0.31165434975066597
0
LWPOLYLINE
5
101
100
AcDbEntity
8
0
100
AcDbPolyline
90
11
70
1
43
0.0
10
15.00000000000002
20
27.295833015315722
10
15.000000000000002
20
79.545854562273988
10
27.828160310812443
20
76.334124433564867
10
40.966651831289568
20
70.828477779016936
10
53.0619639062947
20
63.153567220002039
10
63.478789226295916
20
53.256148603476746
10
71.516054554398607
20
41.363697396595256
10
76.651120682176298
20
28.048722681237471
10
78.661476851285983
20
14.089173106138745
10
77.925895078931205
20
4.9999999999999858
10
37.295833015315729
20
4.9999999999999725
42
0.31165434975066642
0
LWPOLYLINE
5
102
100
AcDbEntity
8
0
100
AcDbPolyline
90
51
70
1
43
0.0
10
15.000000000000002
20
82.638449981905779
10
15
20
91.500000000000043
10
19.58840189269339
20
90.681545769861287
10
20.000000149011615
20
90.681545769861287
10
20.000000149011608
20
100.00000007450581
10
-1.4901161193847654e-07
20
100.00000007450581
10
-1.4901161748959169e-07
20
90.681545769861287
10
4.6838810052145874
20
91.296410987919998
10
4.9999999999999911
20
91.296410987919998
10
4.9999999999999893
20
83.644295815365325
10
0.01273967504107576
20
84.113368709588542
10
-14.638645574638296
20
82.985133481782114
10
-28.800779858875384
20
78.909429765930483
10
-41.573302052835743
20
71.636937870620685
10
-51.969170603310808
20
61.456600884780613
10
-59.30768177785184
20
49.225490991007362
10
-63.409283460793915
20
36.041097271911582
10
-64.480347312017116
20
22.886244653480638
10
-62.908061310431322
20
10.495930699764202
10
-61.054763702904381
20
4.999999999999984
10
-95.000000149011598
20
4.9999999999999547
10
-95.000000149011598
20
-5.000000074505806
10
-56.691761980388584
20
-5.0000000745058069
10
-53.814104071504467
20
-10.110572067163247
10
-47.580786310058045
20
-17.910617787759776
10
-41.233175326016621
20
-24.282980116335196
10
-35.266415632292684
20
-29.832213711753738
10
-29.557859999504164
20
-35.152808822937274
10
-23.50100673579389
20
-40.342886530546771
10
-16.557455185873742
20
-44.893790648738545
10
-8.6667952726442046
20
-48.137448081950836
10
-0.17620821061649422
20
-49.799528777922426
10
8.5872092087978462
20
-50.163380856783697
10
17.674912126280024
20
-49.703338672335292
10
27.414541999673489
20
-48.518349513846616
10
37.946761672039216
20
-46.134183822450993
10
48.927070203414189
20
-41.825019852385751
10
59.594915014755436
20
-35.037547300852701
10
68.985209990398062
20
-25.608550866617929
10
76.172154967060706
20
-13.817030626307908
10
78.998538636353373
20
-5.0000000745058069
10
115.00000171363355
20
-5.0000000745058069
10
115.00000171363355
20
4.9999999999999991
10
80.935703408642723
20
4.9999999999999876
10
81.678891482704472
20
14.183159927876961
10
79.572162854527434
20
28.81190242545193
10
74.192477498336743
20
42.761162807276698
10
65.781702695148581
20
55.206282493601108
10
54.916297516374968
20
65.529913752541319
10
42.359923661186883
20
73.497384594675893
10
28.777629680907456
20
79.189005379075979
0
LWPOLYLINE
5
103
100
AcDbEntity
8
0
100
AcDbPolyline
90
23
70
1
43
0.0
10
37.295833001667887
20
-5.0000000745058069
10
75.848169445699398
20
-5.0000000745058069
10
73.424454393136813
20
-12.560887826399421
10
66.608602498609514
20
-23.743560830053664
10
57.703905265682366
20
-32.684958163683682
10
47.5612378350244
20
-39.138283835587956
10
37.062553453871992
20
-43.258436956884943
10
26.90088078107253
20
-45.558722376989479
10
17.417591769947762
20
-46.712523374673822
10
8.5735692190013815
20
-47.160229851282047
10
0.1762082106164764
20
-46.811576225234226
10
-7.799965832686155
20
-45.250194802697251
10
-15.152231685624384
20
-42.227858008679313
10
-21.695309778314396
20
-37.939429986852964
10
-27.558247376331657
20
-32.91551733721171
10
-33.222163613333542
20
-27.636527873107163
10
-39.148159791759163
20
-22.125205351734166
10
-45.339589598884814
20
-15.909633199921739
10
-51.319058163063985
20
-8.4272410019914386
10
-53.248866993621526
20
-5.0000000745058069
10
-17.295833001667891
20
-5.0000000745058069
10
-12.377664893259272
20
-4.0990991601804012
42
-1.1998168391675241
10
32.377664893259265
20
-4.099099160180427
0
CIRCLE
5
104
100
AcDbEntity
8
0
100
AcDbCircle
10
17.499999292194847
20
95
30
0
40
1.6000000000000014
210
0
220
-0
230
1
0
CIRCLE
5
105
100
AcDbEntity
8
0
100
AcDbCircle
10
2.4999991431832318
20
95
30
0
40
1.6000000000000014
210
0
220
-0
230
1
0
CIRCLE
5
106
100
AcDbEntity
8
0
100
AcDbCircle
10
-92.500000856816783
20
0
30
0
40
1.6000000000000014
210
0
220
-0
230
1
0
CIRCLE
5
107
100
AcDbEntity
8
0
100
AcDbCircle
10
112.50000085681677
20
0
30
0
40
1.6000000000000014
210
0
220
-0
230
1
0
CIRCLE
5
108
100
AcDbEntity
8
0
100
AcDbCircle
10
-77.500000707805157
20
0
30
0
40
1.6000000000000014
210
0
220
-0
230
1
0
CIRCLE
5
109
100
AcDbEntity
8
0
100
AcDbCircle
10
97.500000707805157
20
0
30
0
40
1.6000000000000014
210
0
220
-0
230
1
0
ENDSEC
0
SECTION
2
OBJECTS
0
DICTIONARY
5
C
100
AcDbDictionary
3
ACAD_GROUP
350
D
3
ACAD_MLINESTYLE
350
17
0
DICTIONARY
5
D
100
AcDbDictionary
0
DICTIONARY
5
1A
330
C
100
AcDbDictionary
0
DICTIONARY
5
17
100
AcDbDictionary
0
ENDSEC
0
EOF
