0
SECTION
2
HEADER
9
$INSUNITS
70
4
9
$ACADVER
1
AC1014
9
$HANDSEED
5
FFFF
0
ENDSEC
0
SECTION
2
TABLES
0
TABLE
2
VPORT
5
8
100
AcDbSymbolTable
0
ENDTAB
0
TABLE
2
LTYPE
5
5
100
AcDbSymbolTable
0
LTYPE
5
14
100
AcDbSymbolTableRecord
100
AcDbLinetypeTableRecord
2
BYBLOCK
70
0
0
LTYPE
5
15
100
AcDbSymbolTableRecord
100
AcDbLinetypeTableRecord
2
BYLAYER
70
0
0
ENDTAB
0
TABLE
2
LAYER
5
2
100
AcDbSymbolTable
70
2
0
LAYER
5
50
100
AcDbSymbolTableRecord
100
AcDbLayerTableRecord
2
0
70
0
6
CONTINUOUS
0
ENDTAB
0
TABLE
2
STYLE
5
3
100
AcDbSymbolTable
70
1
0
STYLE
5
11
100
AcDbSymbolTableRecord
100
AcDbTextStyleTableRecord
2
STANDARD
70
0
0
ENDTAB
0
TABLE
2
VIEW
5
6
100
AcDbSymbolTable
70
0
0
ENDTAB
0
TABLE
2
UCS
5
7
100
AcDbSymbolTable
70
0
0
ENDTAB
0
TABLE
2
APPID
5
9
100
AcDbSymbolTable
70
2
0
APPID
5
12
100
AcDbSymbolTableRecord
100
AcDbRegAppTableRecord
2
ACAD
70
0
0
ENDTAB
0
TABLE
2
DIMSTYLE
5
A
100
AcDbSymbolTable
70
1
0
ENDTAB
0
TABLE
2
BLOCK_RECORD
5
1
100
AcDbSymbolTable
70
1
0
BLOCK_RECORD
5
1F
100
AcDbSymbolTableRecord
100
AcDbBlockTableRecord
2
*MODEL_SPACE
0
BLOCK_RECORD
5
1B
100
AcDbSymbolTableRecord
100
AcDbBlockTableRecord
2
*PAPER_SPACE
0
ENDTAB
0
ENDSEC
0
SECTION
2
BLOCKS
0
BLOCK
5
20
100
AcDbEntity
100
AcDbBlockBegin
2
*MODEL_SPACE
0
ENDBLK
5
21
100
AcDbEntity
100
AcDbBlockEnd
0
BLOCK
5
1C
100
AcDbEntity
100
AcDbBlockBegin
2
*PAPER_SPACE
0
ENDBLK
5
1D
100
AcDbEntity
100
AcDbBlockEnd
0
ENDSEC
0
SECTION
2
ENTITIES
0
LWPOLYLINE
5
100
100
AcDbEntity
8
0
100
AcDbPolyline
90
4
70
1
43
0.0
10
35.796161134692845
20
1.2268404734796317
10
35.796161134692845
20
-9.0731595265203566
10
41.096161134692835
20
-9.0731595265203566
10
41.096161134692835
20
1.2268404734796317
0
LWPOLYLINE
5
101
100
AcDbEntity
8
0
100
AcDbPolyline
90
4
70
1
43
0.0
10
43.042348994029169
20
-19.349929544121604
10
47.003887455567593
20
-9.8422372364293604
10
42.11157976325994
20
-7.8037756979678319
10
38.150041301721508
20
-17.311468005660078
0
LWPOLYLINE
5
102
100
AcDbEntity
8
0
100
AcDbPolyline
90
4
70
1
43
0.0
10
35.342011944174814
20
-3.6740566382307192
10
34.910927970136314
20
6.6169183693828524
10
29.615571898257475
20
6.3950984604115879
10
30.046655872295979
20
-3.8958765472019858
0
LWPOLYLINE
5
103
100
AcDbEntity
8
0
100
AcDbPolyline
90
4
70
1
43
0.0
10
25.230463760316965
20
14.306583849296084
10
20.229150027114137
20
12.552485521927634
10
23.638058097283011
20
2.8329512857032708
10
28.639371830485839
20
4.5870496130717218
0
LWPOLYLINE
5
104
100
AcDbEntity
8
0
100
AcDbPolyline
90
4
70
1
43
0.0
10
15.801711037615027
20
7.3434407506573827
10
19.733165131658236
20
10.89782799833185
10
12.825582367309744
20
18.538201049019602
10
8.8941282732665332
20
14.983813801345134
0
LWPOLYLINE
5
105
100
AcDbEntity
8
0
100
AcDbPolyline
90
4
70
1
43
0.0
10
7.9580999266251995
20
15.736697981195846
10
-2.1902010732178567
20
17.497943794983474
10
-3.0964731909920751
20
12.276002503802097
10
7.0518278088509811
20
10.514756690014462
0
LWPOLYLINE
5
106
100
AcDbEntity
8
0
100
AcDbPolyline
90
4
70
1
43
0.0
10
-6.7367909946851228
20
18.866156718356969
10
-15.220449582291975
20
13.025134807002367
10
-12.214875200721156
20
8.6597570871658363
10
-3.7312166131143076
20
14.500778998520438
0
LWPOLYLINE
5
107
100
AcDbEntity
8
0
100
AcDbPolyline
90
4
70
1
43
0.0
10
-20.720968075156151
20
16.444557514527055
10
-25.430682106228094
20
7.2843941019276839
10
-20.717199961880837
20
4.8609490179780446
10
-16.007485930808894
20
14.021112430577411
0
LWPOLYLINE
5
108
100
AcDbEntity
8
0
100
AcDbPolyline
90
4
70
1
43
0.0
10
-26.307533688434098
20
9.099444516438453
10
-31.55042928945668
20
9.8753605665225521
10
-33.058341613205016
20
-0.31366295999302363
10
-27.815446012182441
20
-1.0895790100771228
0
LWPOLYLINE
5
109
100
AcDbEntity
8
0
100
AcDbPolyline
90
4
70
1
43
0.0
10
-34.304869736499725
20
1.096035671470978
10
-39.567589857354548
20
0.46851919395843128
10
-38.348076702943374
20
-9.7590312295896329
10
-33.085356582088551
20
-9.1315147520770843
0
LWPOLYLINE
5
110
100
AcDbEntity
8
0
100
AcDbPolyline
90
4
70
1
43
0.0
10
-40.973599181590032
20
-21.046989843700764
10
-36.018006479043649
20
-19.16760138825332
10
-39.670402911328296
20
-9.5369212304745226
10
-44.625995613874672
20
-11.416309685921963
0
LWPOLYLINE
5
111
100
AcDbEntity
8
0
100
AcDbPolyline
90
4
70
1
43
0.0
10
-40.135803557427366
20
-33.501589675973293
10
-35.752210435834037
20
-30.522645006409974
10
-41.541480265362729
20
-22.003586675766336
10
-45.925073386956072
20
-24.982531345329647
0
LWPOLYLINE
5
112
100
AcDbEntity
8
0
100
AcDbPolyline
90
4
70
1
43
0.0
10
-39.403487891555827
20
-34.449810721783621
10
-43.030948717513027
20
-38.313944254174281
10
-35.521406192300994
20
-45.363537934808079
10
-31.893945366343786
20
-41.499404402417426
0
LWPOLYLINE
5
113
100
AcDbEntity
8
0
100
AcDbPolyline
90
4
70
1
43
0.0
10
-36.644949666235512
20
-49.633109756361968
10
-27.876944972636934
20
-55.037931094115287
10
-25.095823313404651
20
-50.526239358574252
10
-33.863828007003235
20
-45.121418020820968
0
LWPOLYLINE
5
114
100
AcDbEntity
8
0
100
AcDbPolyline
90
4
70
1
43
0.0
10
-16.060180143554579
20
-57.091340796872252
10
-25.695682057512066
20
-53.451683825930935
10
-27.568515256151773
20
-58.409757626316825
10
-17.933013342194286
20
-62.049414597258149
0
LWPOLYLINE
5
115
100
AcDbEntity
8
0
100
AcDbPolyline
90
4
70
1
43
0.0
10
-16.466870333388279
20
-64.24464775422949
10
-6.3209452459937072
20
-66.019529192798686
10
-5.4076567387687859
20
-60.798810458508271
10
-15.553581826163359
20
-59.023929019939075
0
LWPOLYLINE
5
116
100
AcDbEntity
8
0
100
AcDbPolyline
90
4
70
1
43
0.0
10
6.0362987740027858
20
-66.572443318036903
10
5.9657808339515377
20
-61.27291246897763
10
-4.3333074198806409
20
-61.409956767567792
10
-4.2627894798293928
20
-66.709487616627086
0
LWPOLYLINE
5
117
100
AcDbEntity
8
0
100
AcDbPolyline
90
4
70
1
43
0.0
10
18.142984872526181
20
-63.610382104091492
10
17.090517813667471
20
-58.415931883902907
10
6.9956428574519087
20
-60.461292394515112
10
8.0481099163106187
20
-65.655742614703698
0
LWPOLYLINE
5
118
100
AcDbEntity
8
0
100
AcDbPolyline
90
4
70
1
43
0.0
10
27.002777766295143
20
-52.417178545384296
10
17.469343596883963
20
-56.31636216987588
10
19.475719636670906
20
-61.221915674524354
10
29.009153806082079
20
-57.322732050032776
0
LWPOLYLINE
5
119
100
AcDbEntity
8
0
100
AcDbPolyline
90
4
70
1
43
0.0
10
29.314845055764941
20
-53.614326935309258
10
37.903541878752335
20
-47.928881756362749
10
34.978021543954618
20
-43.509455235796402
10
26.389324720967217
20
-49.194900414742918
0
LWPOLYLINE
5
120
100
AcDbEntity
8
0
100
AcDbPolyline
90
4
70
1
43
0.0
10
32.835821848659727
20
-39.630844687917907
10
36.608657101992407
20
-43.353171131314589
10
43.842612265574637
20
-36.021057337102029
10
40.069777012241957
20
-32.298730893705361
0
LWPOLYLINE
5
121
100
AcDbEntity
8
0
100
AcDbPolyline
90
4
70
1
43
0.0
10
46.003514364532862
20
-22.548256949737802
10
41.503020215134384
20
-19.749051274688156
10
36.063054469283173
20
-28.495294621632354
10
40.563548618681651
20
-31.294500296681989
0
ENDSEC
0
SECTION
2
OBJECTS
0
DICTIONARY
5
C
100
AcDbDictionary
3
ACAD_GROUP
350
D
3
ACAD_MLINESTYLE
350
17
0
DICTIONARY
5
D
100
AcDbDictionary
0
DICTIONARY
5
1A
330
C
100
AcDbDictionary
0
DICTIONARY
5
17
100
AcDbDictionary
0
ENDSEC
0
EOF
