0
SECTION
2
HEADER
9
$INSUNITS
70
4
9
$ACADVER
1
AC1014
9
$HANDSEED
5
FFFF
0
ENDSEC
0
SECTION
2
TABLES
0
TABLE
2
VPORT
5
8
100
AcDbSymbolTable
0
ENDTAB
0
TABLE
2
LTYPE
5
5
100
AcDbSymbolTable
0
LTYPE
5
14
100
AcDbSymbolTableRecord
100
AcDbLinetypeTableRecord
2
BYBLOCK
70
0
0
LTYPE
5
15
100
AcDbSymbolTableRecord
100
AcDbLinetypeTableRecord
2
BYLAYER
70
0
0
ENDTAB
0
TABLE
2
LAYER
5
2
100
AcDbSymbolTable
70
2
0
LAYER
5
50
100
AcDbSymbolTableRecord
100
AcDbLayerTableRecord
2
0
70
0
6
CONTINUOUS
0
ENDTAB
0
TABLE
2
STYLE
5
3
100
AcDbSymbolTable
70
1
0
STYLE
5
11
100
AcDbSymbolTableRecord
100
AcDbTextStyleTableRecord
2
STANDARD
70
0
0
ENDTAB
0
TABLE
2
VIEW
5
6
100
AcDbSymbolTable
70
0
0
ENDTAB
0
TABLE
2
UCS
5
7
100
AcDbSymbolTable
70
0
0
ENDTAB
0
TABLE
2
APPID
5
9
100
AcDbSymbolTable
70
2
0
APPID
5
12
100
AcDbSymbolTableRecord
100
AcDbRegAppTableRecord
2
ACAD
70
0
0
ENDTAB
0
TABLE
2
DIMSTYLE
5
A
100
AcDbSymbolTable
70
1
0
ENDTAB
0
TABLE
2
BLOCK_RECORD
5
1
100
AcDbSymbolTable
70
1
0
BLOCK_RECORD
5
1F
100
AcDbSymbolTableRecord
100
AcDbBlockTableRecord
2
*MODEL_SPACE
0
BLOCK_RECORD
5
1B
100
AcDbSymbolTableRecord
100
AcDbBlockTableRecord
2
*PAPER_SPACE
0
ENDTAB
0
ENDSEC
0
SECTION
2
BLOCKS
0
BLOCK
5
20
100
AcDbEntity
100
AcDbBlockBegin
2
*MODEL_SPACE
0
ENDBLK
5
21
100
AcDbEntity
100
AcDbBlockEnd
0
BLOCK
5
1C
100
AcDbEntity
100
AcDbBlockBegin
2
*PAPER_SPACE
0
ENDBLK
5
1D
100
AcDbEntity
100
AcDbBlockEnd
0
ENDSEC
0
SECTION
2
ENTITIES
0
LWPOLYLINE
5
100
100
AcDbEntity
8
0
100
AcDbPolyline
90
4
70
1
43
0.0
10
78.919230769230765
20
-27.303846153846148
10
74.957692307692312
20
-36.811538461538461
10
79.850000000000023
20
-38.850000000000001
10
83.811538461538476
20
-29.342307692307692
0
LWPOLYLINE
5
101
100
AcDbEntity
8
0
100
AcDbPolyline
90
4
70
1
43
0.0
10
80.818699466474285
20
-26.619546438836199
10
83.442943752710079
20
-16.659458993127771
10
78.317850212685357
20
-15.309119700210312
10
75.69360592644955
20
-25.269207145918742
0
LWPOLYLINE
5
102
100
AcDbEntity
8
0
100
AcDbPolyline
90
4
70
1
43
0.0
10
79.984103344806073
20
-14.236251361764376
10
81.142558478232573
20
-4.0016052172297361
10
75.876187161141942
20
-3.405506944689876
10
74.717732027715428
20
-13.640153089224516
0
LWPOLYLINE
5
103
100
AcDbEntity
8
0
100
AcDbPolyline
90
4
70
1
43
0.0
10
77.30521100434666
20
-1.9162384916659712
10
76.874127030308145
20
8.3747365159476033
10
71.578770958429331
20
8.152916606976337
10
72.009854932467817
20
-2.1380584006372367
0
LWPOLYLINE
5
104
100
AcDbEntity
8
0
100
AcDbPolyline
90
4
70
1
43
0.0
10
70.902283141532692
20
19.74086425245854
10
65.709531869197718
20
18.680046537832826
10
67.771121012715611
20
8.5884733104648987
10
72.96387228505057
20
9.6492910250906068
0
LWPOLYLINE
5
105
100
AcDbEntity
8
0
100
AcDbPolyline
90
4
70
1
43
0.0
10
58.149056317857315
20
28.397391502542906
10
61.918036020425227
20
18.81173596931874
10
66.850460712278448
20
20.7511138745236
10
63.081481009710529
20
30.336769407747759
0
LWPOLYLINE
5
106
100
AcDbEntity
8
0
100
AcDbPolyline
90
4
70
1
43
0.0
10
53.854135424888383
20
39.48694832669203
10
49.351001671639111
20
36.691991010318986
10
54.782711173269746
20
27.940617867211923
10
59.285844926519012
20
30.735575183584967
0
LWPOLYLINE
5
107
100
AcDbEntity
8
0
100
AcDbPolyline
90
4
70
1
43
0.0
10
43.477042411360934
20
47.016636784371507
10
39.577428128612183
20
43.427345984536245
10
46.552842324518444
20
35.848850302967946
10
50.45245660726718
20
39.438141102803186
0
LWPOLYLINE
5
108
100
AcDbEntity
8
0
100
AcDbPolyline
90
4
70
1
43
0.0
10
40.563795778149647
20
46.686793332516885
10
32.25308069618891
20
52.771365201306857
10
29.122184491860089
20
48.494977829035797
10
37.432899573820826
20
42.410405960245818
0
LWPOLYLINE
5
109
100
AcDbEntity
8
0
100
AcDbPolyline
90
4
70
1
43
0.0
10
17.764486220989102
20
51.960727176342203
10
27.155191530366416
20
47.729338067263157
10
29.332508256397375
20
52.561448566263138
10
19.941802947020065
20
56.792837675342184
0
LWPOLYLINE
5
110
100
AcDbEntity
8
0
100
AcDbPolyline
90
4
70
1
43
0.0
10
6.3930643727942558
20
53.552523450031217
10
16.457123974899762
20
51.360559872489844
10
17.585027563343381
20
56.539153648330533
10
7.5209679612378739
20
58.731117225871905
0
LWPOLYLINE
5
111
100
AcDbEntity
8
0
100
AcDbPolyline
90
4
70
1
43
0.0
10
-5.1499999999999968
20
53.350000000000001
10
5.1500000000000039
20
53.350000000000001
10
5.1500000000000039
20
58.650000000000006
10
-5.1499999999999968
20
58.650000000000006
0
LWPOLYLINE
5
112
100
AcDbEntity
8
0
100
AcDbPolyline
90
4
70
1
43
0.0
10
-16.457123974899776
20
51.360559872489816
10
-6.3930643727942744
20
53.552523450031202
10
-7.5209679612378935
20
58.731117225871898
10
-17.585027563343402
20
56.539153648330533
0
LWPOLYLINE
5
113
100
AcDbEntity
8
0
100
AcDbPolyline
90
4
70
1
43
0.0
10
-27.155191530366416
20
47.729338067263157
10
-17.764486220989109
20
51.960727176342203
10
-19.941802947020076
20
56.79283767534217
10
-29.332508256397386
20
52.561448566263138
0
LWPOLYLINE
5
114
100
AcDbEntity
8
0
100
AcDbPolyline
90
4
70
1
43
0.0
10
-32.253080696188924
20
52.771365201306857
10
-40.563795778149654
20
46.686793332516878
10
-37.432899573820826
20
42.410405960245811
10
-29.122184491860097
20
48.49497782903579
0
LWPOLYLINE
5
115
100
AcDbEntity
8
0
100
AcDbPolyline
90
4
70
1
43
0.0
10
-50.45245660726718
20
39.438141102803215
10
-46.552842324518437
20
35.848850302967953
10
-39.577428128612169
20
43.427345984536281
10
-43.47704241136092
20
47.016636784371528
0
LWPOLYLINE
5
116
100
AcDbEntity
8
0
100
AcDbPolyline
90
4
70
1
43
0.0
10
-54.78271117326976
20
27.940617867211927
10
-49.351001671639139
20
36.691991010318993
10
-53.854135424888405
20
39.48694832669203
10
-59.285844926519033
20
30.735575183584967
0
LWPOLYLINE
5
117
100
AcDbEntity
8
0
100
AcDbPolyline
90
4
70
1
43
0.0
10
-66.850460712278448
20
20.751113874523611
10
-61.918036020425227
20
18.811735969318757
10
-58.149056317857315
20
28.39739150254292
10
-63.081481009710529
20
30.33676940774777
0
LWPOLYLINE
5
118
100
AcDbEntity
8
0
100
AcDbPolyline
90
4
70
1
43
0.0
10
-72.744823536752619
20
10.122622865916984
10
-67.559544643576487
20
9.0258627280645278
10
-65.428105130391515
20
19.102914161972851
10
-70.613384023567662
20
20.199674299825308
0
LWPOLYLINE
5
119
100
AcDbEntity
8
0
100
AcDbPolyline
90
4
70
1
43
0.0
10
-71.36825493430058
20
8.6043970072063267
10
-76.66207891658695
20
8.8601852879575809
10
-77.159176896160147
20
-1.4278122625234768
10
-71.865352913873778
20
-1.6836005432747312
0
LWPOLYLINE
5
120
100
AcDbEntity
8
0
100
AcDbPolyline
90
4
70
1
43
0.0
10
-81.009802132336233
20
-3.4994063259917567
10
-79.912604046229546
20
-13.740800584579983
10
-74.642760398606484
20
-13.176222928622179
10
-75.739958484713156
20
-2.9348286700339532
0
LWPOLYLINE
5
121
100
AcDbEntity
8
0
100
AcDbPolyline
90
4
70
1
43
0.0
10
-78.255685720248493
20
-14.829554119105925
10
-83.388308769061098
20
-16.150985403281354
10
-80.820244197927707
20
-26.125705667954922
10
-75.687621149115088
20
-24.804274383779482
0
LWPOLYLINE
5
122
100
AcDbEntity
8
0
100
AcDbPolyline
90
4
70
1
43
0.0
10
-78.930120275922562
20
-26.82544302101244
10
-83.833281115383812
20
-28.837659158104486
10
-79.922747867827553
20
-38.366443431019746
10
-75.019587028366303
20
-36.354227293927707
0
LWPOLYLINE
5
123
100
AcDbEntity
8
0
100
AcDbPolyline
90
4
70
1
43
0.0
10
-77.799584764121263
20
-38.673670111219465
10
-82.397365082591691
20
-41.310034301365789
10
-77.273864864005446
20
-50.245343222166817
10
-72.676084545535005
20
-47.6089790320205
0
LWPOLYLINE
5
124
100
AcDbEntity
8
0
100
AcDbPolyline
90
4
70
1
43
0.0
10
-79.155128964079424
20
-53.325302498689204
10
-72.94774315819356
20
-61.544691859030195
10
-68.718348632969551
20
-58.350600133671463
10
-74.925734438855415
20
-50.131210773330459
0
LWPOLYLINE
5
125
100
AcDbEntity
8
0
100
AcDbPolyline
90
4
70
1
43
0.0
10
-63.235014470059603
20
-68.365010529633878
10
-70.398034987367666
20
-60.963582487112397
10
-74.206536795655424
20
-64.649408578542761
10
-67.043516278347354
20
-72.050836621064249
0
LWPOLYLINE
5
126
100
AcDbEntity
8
0
100
AcDbPolyline
90
4
70
1
43
0.0
10
-67.678672741391367
20
-75.0608077584493
10
-59.687503232983289
20
-81.559362204469465
10
-56.343586867555402
20
-77.447401195288592
10
-64.334756375963508
20
-70.948846749268441
0
LWPOLYLINE
5
127
100
AcDbEntity
8
0
100
AcDbPolyline
90
4
70
1
43
0.0
10
-51.033453445102609
20
-89.880518836058044
10
-48.190165953395514
20
-85.407743831712082
10
-56.882540018445212
20
-79.882109649715261
10
-59.7258275101523
20
-84.354884654061223
0
LWPOLYLINE
5
128
100
AcDbEntity
8
0
100
AcDbPolyline
90
4
70
1
43
0.0
10
-48.21470221842489
20
-87.58003483466328
10
-50.528165955528088
20
-92.348460731865472
10
-41.261225060965359
20
-96.844437428500001
10
-38.947761323862146
20
-92.076011531297837
0
LWPOLYLINE
5
129
100
AcDbEntity
8
0
100
AcDbPolyline
90
4
70
1
43
0.0
10
-28.813468858970566
20
-97.306879805571782
10
-38.528461257896282
20
-93.885049492885955
10
-40.289208894521032
20
-98.884026164177854
10
-30.574216495595312
20
-102.3058564768637
0
LWPOLYLINE
5
130
100
AcDbEntity
8
0
100
AcDbPolyline
90
4
70
1
43
0.0
10
-29.232349591736472
20
-103.83345558551581
10
-19.195815226834853
20
-106.14818622689695
10
-18.004740236609603
20
-100.98375592262718
10
-28.041274601511226
20
-98.66902528124605
0
LWPOLYLINE
5
131
100
AcDbEntity
8
0
100
AcDbPolyline
90
4
70
1
43
0.0
10
-17.59660996722036
20
-107.1010430736994
10
-7.3650901918116496
20
-108.28679308336442
10
-6.7549469829549089
20
-103.02203048048419
10
-16.986466758363619
20
-101.83628047081922
0
LWPOLYLINE
5
132
100
AcDbEntity
8
0
100
AcDbPolyline
90
4
70
1
43
0.0
10
-5.6083235130654554
20
-103.3257940009006
10
-5.6318299597625021
20
-108.6257418729993
10
4.6680687350708467
20
-108.67142421280678
10
4.6915751817678935
20
-103.37147634070809
0
LWPOLYLINE
5
133
100
AcDbEntity
8
0
100
AcDbPolyline
90
4
70
1
43
0.0
10
6.4065237771349635
20
-108.38253109601658
10
16.648173506166945
20
-107.2877202320683
10
16.084824226659578
20
-102.01774512878001
10
5.8431744976275981
20
-103.11255599272828
0
LWPOLYLINE
5
134
100
AcDbEntity
8
0
100
AcDbPolyline
90
4
70
1
43
0.0
10
18.262747553077677
20
-106.3828613539313
10
28.319538783530955
20
-104.15778828837188
10
27.174598274068344
20
-98.982934548429924
10
17.117807043615066
20
-101.20800761398931
0
LWPOLYLINE
5
135
100
AcDbEntity
8
0
100
AcDbPolyline
90
4
70
1
43
0.0
10
29.68630792274794
20
-102.67415733687643
10
39.431679670559006
20
-99.339831393456123
10
37.715958554041748
20
-94.325222630019368
10
27.970586806230685
20
-97.659548573439707
0
LWPOLYLINE
5
136
100
AcDbEntity
8
0
100
AcDbPolyline
90
4
70
1
43
0.0
10
47.474517249901595
20
-88.13758868566913
10
38.167077107589563
20
-92.549114271821708
10
40.437085418910776
20
-97.338379587768685
10
49.744525561222808
20
-92.926854001616135
0
LWPOLYLINE
5
137
100
AcDbEntity
8
0
100
AcDbPolyline
90
4
70
1
43
0.0
10
47.488381402423734
20
-85.990847541874032
10
50.290270952494069
20
-90.489671271384523
10
59.033268011731437
20
-85.04448969294593
10
56.231378461661095
20
-80.545665963435468
0
LWPOLYLINE
5
138
100
AcDbEntity
8
0
100
AcDbPolyline
90
4
70
1
43
0.0
10
63.787559451904144
20
-71.704799023973578
10
55.735627491031643
20
-78.127912887006048
10
59.040724915698817
20
-82.271140012503551
10
67.09265687657134
20
-75.848026149471067
0
LWPOLYLINE
5
139
100
AcDbEntity
8
0
100
AcDbPolyline
90
4
70
1
43
0.0
10
66.506596845383399
20
-72.850852380873178
10
73.740552008965622
20
-65.518738586660632
10
69.967716755632949
20
-61.79641214326395
10
62.733761592050719
20
-69.12852593747651
0
LWPOLYLINE
5
140
100
AcDbEntity
8
0
100
AcDbPolyline
90
4
70
1
43
0.0
10
78.820526565095477
20
-54.259691568680076
10
74.622997070867925
20
-51.023838335746063
10
68.334452108750867
20
-59.181301315094004
10
72.531981602978433
20
-62.417154548028016
0
LWPOLYLINE
5
141
100
AcDbEntity
8
0
100
AcDbPolyline
90
4
70
1
43
0.0
10
77.632826886576794
20
-39.607820861579228
10
72.417875861645044
20
-48.490066400155811
10
76.98835172130093
20
-51.173487801334289
10
82.20330274623268
20
-42.291242262757692
0
ENDSEC
0
SECTION
2
OBJECTS
0
DICTIONARY
5
C
100
AcDbDictionary
3
ACAD_GROUP
350
D
3
ACAD_MLINESTYLE
350
17
0
DICTIONARY
5
D
100
AcDbDictionary
0
DICTIONARY
5
1A
330
C
100
AcDbDictionary
0
DICTIONARY
5
17
100
AcDbDictionary
0
ENDSEC
0
EOF
