0
SECTION
2
HEADER
9
$INSUNITS
70
4
9
$ACADVER
1
AC1014
9
$HANDSEED
5
FFFF
0
ENDSEC
0
SECTION
2
TABLES
0
TABLE
2
VPORT
5
8
100
AcDbSymbolTable
0
ENDTAB
0
TABLE
2
LTYPE
5
5
100
AcDbSymbolTable
0
LTYPE
5
14
100
AcDbSymbolTableRecord
100
AcDbLinetypeTableRecord
2
BYBLOCK
70
0
0
LTYPE
5
15
100
AcDbSymbolTableRecord
100
AcDbLinetypeTableRecord
2
BYLAYER
70
0
0
ENDTAB
0
TABLE
2
LAYER
5
2
100
AcDbSymbolTable
70
2
0
LAYER
5
50
100
AcDbSymbolTableRecord
100
AcDbLayerTableRecord
2
0
70
0
6
CONTINUOUS
0
ENDTAB
0
TABLE
2
STYLE
5
3
100
AcDbSymbolTable
70
1
0
STYLE
5
11
100
AcDbSymbolTableRecord
100
AcDbTextStyleTableRecord
2
STANDARD
70
0
0
ENDTAB
0
TABLE
2
VIEW
5
6
100
AcDbSymbolTable
70
0
0
ENDTAB
0
TABLE
2
UCS
5
7
100
AcDbSymbolTable
70
0
0
ENDTAB
0
TABLE
2
APPID
5
9
100
AcDbSymbolTable
70
2
0
APPID
5
12
100
AcDbSymbolTableRecord
100
AcDbRegAppTableRecord
2
ACAD
70
0
0
ENDTAB
0
TABLE
2
DIMSTYLE
5
A
100
AcDbSymbolTable
70
1
0
ENDTAB
0
TABLE
2
BLOCK_RECORD
5
1
100
AcDbSymbolTable
70
1
0
BLOCK_RECORD
5
1F
100
AcDbSymbolTableRecord
100
AcDbBlockTableRecord
2
*MODEL_SPACE
0
BLOCK_RECORD
5
1B
100
AcDbSymbolTableRecord
100
AcDbBlockTableRecord
2
*PAPER_SPACE
0
ENDTAB
0
ENDSEC
0
SECTION
2
BLOCKS
0
BLOCK
5
20
100
AcDbEntity
100
AcDbBlockBegin
2
*MODEL_SPACE
0
ENDBLK
5
21
100
AcDbEntity
100
AcDbBlockEnd
0
BLOCK
5
1C
100
AcDbEntity
100
AcDbBlockBegin
2
*PAPER_SPACE
0
ENDBLK
5
1D
100
AcDbEntity
100
AcDbBlockEnd
0
ENDSEC
0
SECTION
2
ENTITIES
0
LWPOLYLINE
5
100
100
AcDbEntity
8
0
100
AcDbPolyline
90
36
70
1
43
0.0
10
-0.29899415791498546
20
83.716505459770929
10
-14.331616470515714
20
79.302794972045362
10
-26.765338490887586
20
72.452553940605284
10
-37.256255836870146
20
63.756965536460186
10
-45.624147770259626
20
53.758482794035565
10
-51.791667560654176
20
42.934883935523793
10
-55.750813310392331
20
31.716661273445727
10
-57.552489980906749
20
20.502991667041286
10
-57.302926869071804
20
9.6659628647229798
10
-55.159180576669982
20
-0.45101179173295264
10
-51.32771240935454
20
-9.5350630844048787
10
-46.072820695932315
20
-17.310688573301817
10
-39.730399493301427
20
-23.563059933634737
10
-32.708764365125404
20
-28.182424790434119
10
-25.453013588111716
20
-31.213482102893074
10
-18.367741731845015
20
-32.874151027111864
10
-11.727916743187986
20
-33.514854702680744
10
-5.6286628036419213
20
-33.540526555442717
10
0.024298245360752105
20
-33.358946813564295
10
5.5629890343694441
20
-33.35736915985936
10
11.627388623280792
20
-33.798917897017134
10
18.982430624212427
20
-34.547866202449306
10
28.033152723451522
20
-34.825675994225989
10
38.50906833611517
20
-33.49360663229217
10
49.642879441113898
20
-29.649652372789475
10
60.540106062922227
20
-22.876168918800207
10
70.302374102720066
20
-13.119801832196185
10
77.898809124148983
20
-0.60908921841181474
10
82.148424572382908
20
14.007954092602866
10
82.12419711612732
20
29.562236964065775
10
77.679654458165018
20
44.662812829960082
10
69.421920527528613
20
58.188468378551562
10
58.216056911333204
20
69.430582651480421
10
44.860733638633398
20
77.905909132242371
10
30.107989821799549
20
83.22232064113922
10
14.769675400464113
20
85.142678286501607
0
LWPOLYLINE
5
101
100
AcDbEntity
8
0
100
AcDbPolyline
90
36
70
1
43
0.0
10
0.2989941579149929
20
80.759695476480459
10
-13.146050311651432
20
76.530797095172588
10
-25.069254853223644
20
69.961820818953115
10
-35.131203143954991
20
61.621791249137019
10
-43.150839048052312
20
52.039426679191301
10
-49.052104106638012
20
41.683087677026947
10
-52.831740094042743
20
30.973505163901759
10
-54.546971033483572
20
20.297875419481404
10
-54.310156366764176
20
10.014435109814556
10
-52.283705379489646
20
0.45101179173296657
10
-48.677660372373353
20
-8.0985823528217225
10
-43.754264044417312
20
-15.383696503093233
10
-37.834727701933858
20
-21.219187132261922
10
-31.293935455269409
20
-25.522217023209315
10
-24.526189363261114
20
-28.349412569400624
10
-17.879180550844044
20
-29.907359984505995
10
-11.577212788946603
20
-30.515462444324129
10
-5.6705200614714251
20
-30.540323804010562
10
-0.024298245360763207
20
-30.358960534200214
10
5.6716329220351795
20
-30.357338091776253
10
11.888325356982268
20
-30.809975266108932
10
19.180655388316691
20
-31.55253774487225
10
27.889075724355692
20
-31.819840664322424
10
37.823087635668237
20
-30.556677290597957
10
48.345330803805425
20
-26.923867189524419
10
58.663416762461786
20
-20.510365209311395
10
67.925822118928906
20
-11.253558656344429
10
75.12875584017749
20
0.60908921841181363
10
79.147759011256454
20
14.432914958498536
10
79.124870433128734
20
29.127623927043629
10
74.913273197190534
20
43.436755028292488
10
67.046462944610695
20
56.322101860280128
10
56.326874732683734
20
67.076367641549723
10
43.532521969259463
20
75.195700627050641
10
29.404526152131879
20
80.28697317216988
10
14.724122296805914
20
82.124960385508516
0
ENDSEC
0
SECTION
2
OBJECTS
0
DICTIONARY
5
C
100
AcDbDictionary
3
ACAD_GROUP
350
D
3
ACAD_MLINESTYLE
350
17
0
DICTIONARY
5
D
100
AcDbDictionary
0
DICTIONARY
5
1A
330
C
100
AcDbDictionary
0
DICTIONARY
5
17
100
AcDbDictionary
0
ENDSEC
0
EOF
