0
SECTION
2
HEADER
9
$INSUNITS
70
4
9
$ACADVER
1
AC1014
9
$HANDSEED
5
FFFF
0
ENDSEC
0
SECTION
2
TABLES
0
TABLE
2
VPORT
5
8
100
AcDbSymbolTable
0
ENDTAB
0
TABLE
2
LTYPE
5
5
100
AcDbSymbolTable
0
LTYPE
5
14
100
AcDbSymbolTableRecord
100
AcDbLinetypeTableRecord
2
BYBLOCK
70
0
0
LTYPE
5
15
100
AcDbSymbolTableRecord
100
AcDbLinetypeTableRecord
2
BYLAYER
70
0
0
ENDTAB
0
TABLE
2
LAYER
5
2
100
AcDbSymbolTable
70
2
0
LAYER
5
50
100
AcDbSymbolTableRecord
100
AcDbLayerTableRecord
2
0
70
0
6
CONTINUOUS
0
ENDTAB
0
TABLE
2
STYLE
5
3
100
AcDbSymbolTable
70
1
0
STYLE
5
11
100
AcDbSymbolTableRecord
100
AcDbTextStyleTableRecord
2
STANDARD
70
0
0
ENDTAB
0
TABLE
2
VIEW
5
6
100
AcDbSymbolTable
70
0
0
ENDTAB
0
TABLE
2
UCS
5
7
100
AcDbSymbolTable
70
0
0
ENDTAB
0
TABLE
2
APPID
5
9
100
AcDbSymbolTable
70
2
0
APPID
5
12
100
AcDbSymbolTableRecord
100
AcDbRegAppTableRecord
2
ACAD
70
0
0
ENDTAB
0
TABLE
2
DIMSTYLE
5
A
100
AcDbSymbolTable
70
1
0
ENDTAB
0
TABLE
2
BLOCK_RECORD
5
1
100
AcDbSymbolTable
70
1
0
BLOCK_RECORD
5
1F
100
AcDbSymbolTableRecord
100
AcDbBlockTableRecord
2
*MODEL_SPACE
0
BLOCK_RECORD
5
1B
100
AcDbSymbolTableRecord
100
AcDbBlockTableRecord
2
*PAPER_SPACE
0
ENDTAB
0
ENDSEC
0
SECTION
2
BLOCKS
0
BLOCK
5
20
100
AcDbEntity
100
AcDbBlockBegin
2
*MODEL_SPACE
0
ENDBLK
5
21
100
AcDbEntity
100
AcDbBlockEnd
0
BLOCK
5
1C
100
AcDbEntity
100
AcDbBlockBegin
2
*PAPER_SPACE
0
ENDBLK
5
1D
100
AcDbEntity
100
AcDbBlockEnd
0
ENDSEC
0
SECTION
2
ENTITIES
0
LWPOLYLINE
5
100
100
AcDbEntity
8
0
100
AcDbPolyline
90
11
70
1
43
0.0
10
70.515507483267754
20
4.999999999999984
10
37.295833015315729
20
4.9999999999999725
42
0.31165434975066642
10
15.00000000000002
20
27.295833015315722
10
15.000000000000002
20
81.972986794555766
10
29.375976153242348
20
80.212753077957586
10
43.438894979642612
20
75.069546575834238
10
55.995696130961633
20
66.757371689403669
10
66.104617364446682
20
55.655233905956898
10
72.814856849069713
20
42.387540149426201
10
75.424399813720512
20
27.949580553407284
10
73.878474613562588
20
13.644646347058988
0
LWPOLYLINE
5
101
100
AcDbEntity
8
0
100
AcDbPolyline
90
23
70
1
43
0.0
10
37.295833001667887
20
-5.0000000745058069
10
64.845233497039757
20
-5.0000000745058069
10
61.333713359264081
20
-10.011958903031857
10
52.285921717759571
20
-18.119561940224372
10
42.553264746745185
20
-23.523132883804898
10
32.985240001878225
20
-26.485671857170491
10
24.351522125207509
20
-27.708310441917039
10
17.023908801378791
20
-28.161505271089705
10
10.814732944026728
20
-28.601218269538059
10
5.2390543839102879
20
-29.244440249793726
10
-0.16098057086104678
20
-29.927754943494858
10
-5.7089170922752688
20
-30.423660034373945
10
-11.607865192555298
20
-30.527872167185379
10
-17.949801075387409
20
-29.994530324474418
10
-24.682754835880353
20
-28.506807639914502
10
-31.582393651169731
20
-25.739490786916974
10
-38.277152565285476
20
-21.458063047491027
10
-44.321220796981663
20
-15.585995227190558
10
-49.278015146784711
20
-8.2156241620185479
10
-50.5834663464519
20
-5.0000000745058069
10
-17.295833001667891
20
-5.0000000745058069
10
-12.377664893259272
20
-4.0990991601804012
42
-1.1998168391675241
10
32.377664893259265
20
-4.099099160180427
0
LWPOLYLINE
5
102
100
AcDbEntity
8
0
100
AcDbPolyline
90
51
70
1
43
0.0
10
68.50828140719986
20
-5.0000000745058069
10
115.00000171363355
20
-5.0000000745058069
10
115.00000171363355
20
5
10
73.73452142531103
20
4.9999999999999849
10
76.818417084694545
20
12.927281568245228
10
78.453519620572493
20
28.057401831488164
10
75.68926310211647
20
43.351353480159602
10
68.597551300852786
20
57.373306139875609
10
57.962739779945416
20
69.053003713836844
10
44.800662740383395
20
77.765850632657362
10
30.082702616761644
20
83.148624233234301
10
15
20
84.995391464930037
10
15
20
91.500000000000043
10
19.58840189269339
20
90.681545769861287
10
20.000000149011615
20
90.681545769861287
10
20.000000149011608
20
100.00000007450581
10
-1.4901161193847656e-07
20
100.00000007450581
10
-1.4901161748959169e-07
20
90.681545769861287
10
4.6838810052145874
20
91.296410987919998
10
4.9999999999999911
20
91.296410987919998
10
4.9999999999999911
20
84.033838533240285
10
-0.31197514984969699
20
83.492274449429146
10
-14.283598159891204
20
78.939522737768399
10
-26.605126314000096
20
71.969272716380743
10
-36.960401374600693
20
63.227312135414834
10
-45.227405991862859
20
53.289710666093384
10
-51.394714734743857
20
42.623806024369159
10
-55.491914846059096
20
31.601945650524712
10
-57.549168209370798
20
20.541774521335459
10
-57.593032470284271
20
9.7538030197293857
10
-56.698929235829532
20
4.9999999999999876
10
-95.000000149011598
20
4.9999999999999547
10
-95.000000149011598
20
-5.000000074505806
10
-53.821261045701448
20
-5.0000000745058069
10
-51.940807831981644
20
-9.6319852846919378
10
-46.63605393831223
20
-17.519745366429685
10
-40.149578014161669
20
-23.821630964215053
10
-32.961012540919128
20
-28.418857543790143
10
-25.570729384510326
20
-31.382962720112491
10
-18.401149466988937
20
-32.967162918344791
10
-11.70732900606839
20
-33.530097423732656
10
-5.5486714513411837
20
-33.421297205774664
10
0.1609805708610374
20
-32.910937093680886
10
5.5992751632478219
20
-32.222781066029633
10
11.092731082962644
20
-31.58904446212965
10
17.222466745786495
20
-31.154957151684957
10
24.6549082020524
20
-30.695278960812796
10
33.64340480829177
20
-29.422399428885186
10
43.737624423034745
20
-26.296935206979761
10
54.036896994221948
20
-20.578779294218492
10
63.592714739900977
20
-12.015940974387076
0
LWPOLYLINE
5
103
100
AcDbEntity
8
0
100
AcDbPolyline
90
13
70
1
43
0.0
10
-17.295833015315736
20
5.0000000000000222
10
-53.646328304139544
20
4.9999999999999911
10
-54.591895108843232
20
10.027426541295959
10
-54.550292805019524
20
20.259092565187231
10
-52.589799947703554
20
30.79906148013049
10
-48.670917839379456
20
41.341229362098993
10
-42.757989975904465
20
51.567201074317424
10
-34.823173194592762
20
61.105486167337482
10
-24.884064836609802
20
69.49611731590268
10
-13.068213191719984
20
76.180307714237486
10
0.31197514984970143
20
80.540336275746995
10
4.999999999999992
20
81.018287661292803
10
5.0000000000000009
20
27.295833015315736
42
0.31165434975066619
0
CIRCLE
5
104
100
AcDbEntity
8
0
100
AcDbCircle
10
2.4999991431832318
20
95
30
0
40
1.6000000000000014
210
0
220
-0
230
1
0
CIRCLE
5
105
100
AcDbEntity
8
0
100
AcDbCircle
10
-92.500000856816783
20
0
30
0
40
1.6000000000000014
210
0
220
-0
230
1
0
CIRCLE
5
106
100
AcDbEntity
8
0
100
AcDbCircle
10
97.500000707805157
20
0
30
0
40
1.6000000000000014
210
0
220
-0
230
1
0
CIRCLE
5
107
100
AcDbEntity
8
0
100
AcDbCircle
10
-77.500000707805157
20
0
30
0
40
1.6000000000000014
210
0
220
-0
230
1
0
CIRCLE
5
108
100
AcDbEntity
8
0
100
AcDbCircle
10
17.499999292194847
20
95
30
0
40
1.6000000000000014
210
0
220
-0
230
1
0
CIRCLE
5
109
100
AcDbEntity
8
0
100
AcDbCircle
10
112.50000085681677
20
0
30
0
40
1.6000000000000014
210
0
220
-0
230
1
0
ENDSEC
0
SECTION
2
OBJECTS
0
DICTIONARY
5
C
100
AcDbDictionary
3
ACAD_GROUP
350
D
3
ACAD_MLINESTYLE
350
17
0
DICTIONARY
5
D
100
AcDbDictionary
0
DICTIONARY
5
1A
330
C
100
AcDbDictionary
0
DICTIONARY
5
17
100
AcDbDictionary
0
ENDSEC
0
EOF
