0
SECTION
2
HEADER
9
$INSUNITS
70
4
9
$ACADVER
1
AC1014
9
$HANDSEED
5
FFFF
0
ENDSEC
0
SECTION
2
TABLES
0
TABLE
2
VPORT
5
8
100
AcDbSymbolTable
0
ENDTAB
0
TABLE
2
LTYPE
5
5
100
AcDbSymbolTable
0
LTYPE
5
14
100
AcDbSymbolTableRecord
100
AcDbLinetypeTableRecord
2
BYBLOCK
70
0
0
LTYPE
5
15
100
AcDbSymbolTableRecord
100
AcDbLinetypeTableRecord
2
BYLAYER
70
0
0
ENDTAB
0
TABLE
2
LAYER
5
2
100
AcDbSymbolTable
70
2
0
LAYER
5
50
100
AcDbSymbolTableRecord
100
AcDbLayerTableRecord
2
0
70
0
6
CONTINUOUS
0
ENDTAB
0
TABLE
2
STYLE
5
3
100
AcDbSymbolTable
70
1
0
STYLE
5
11
100
AcDbSymbolTableRecord
100
AcDbTextStyleTableRecord
2
STANDARD
70
0
0
ENDTAB
0
TABLE
2
VIEW
5
6
100
AcDbSymbolTable
70
0
0
ENDTAB
0
TABLE
2
UCS
5
7
100
AcDbSymbolTable
70
0
0
ENDTAB
0
TABLE
2
APPID
5
9
100
AcDbSymbolTable
70
2
0
APPID
5
12
100
AcDbSymbolTableRecord
100
AcDbRegAppTableRecord
2
ACAD
70
0
0
ENDTAB
0
TABLE
2
DIMSTYLE
5
A
100
AcDbSymbolTable
70
1
0
ENDTAB
0
TABLE
2
BLOCK_RECORD
5
1
100
AcDbSymbolTable
70
1
0
BLOCK_RECORD
5
1F
100
AcDbSymbolTableRecord
100
AcDbBlockTableRecord
2
*MODEL_SPACE
0
BLOCK_RECORD
5
1B
100
AcDbSymbolTableRecord
100
AcDbBlockTableRecord
2
*PAPER_SPACE
0
ENDTAB
0
ENDSEC
0
SECTION
2
BLOCKS
0
BLOCK
5
20
100
AcDbEntity
100
AcDbBlockBegin
2
*MODEL_SPACE
0
ENDBLK
5
21
100
AcDbEntity
100
AcDbBlockEnd
0
BLOCK
5
1C
100
AcDbEntity
100
AcDbBlockBegin
2
*PAPER_SPACE
0
ENDBLK
5
1D
100
AcDbEntity
100
AcDbBlockEnd
0
ENDSEC
0
SECTION
2
ENTITIES
0
LWPOLYLINE
5
100
100
AcDbEntity
8
0
100
AcDbPolyline
90
36
70
1
43
0.0
10
-26.605126314000096
20
71.969272716380743
10
-36.960401374600693
20
63.22731213541482
10
-45.227405991862859
20
53.289710666093384
10
-51.394714734743857
20
42.623806024369159
10
-55.491914846059096
20
31.601945650524712
10
-57.549168209370798
20
20.541774521335459
10
-57.593032470284271
20
9.7538030197293857
10
-55.678591519209235
20
-0.42497144792389646
10
-51.940807831981658
20
-9.6319852846919378
10
-46.63605393831223
20
-17.519745366429685
10
-40.149578014161669
20
-23.821630964215053
10
-32.961012540919128
20
-28.418857543790143
10
-25.570729384510326
20
-31.382962720112491
10
-18.401149466988937
20
-32.967162918344791
10
-11.70732900606839
20
-33.530097423732656
10
-5.5486714513411837
20
-33.421297205774664
10
0.1609805708610374
20
-32.910937093680886
10
5.5992751632478219
20
-32.222781066029633
10
11.092731082962644
20
-31.58904446212965
10
17.222466745786495
20
-31.154957151684957
10
24.6549082020524
20
-30.695278960812796
10
33.64340480829177
20
-29.422399428885186
10
43.737624423034745
20
-26.296935206979761
10
54.036896994221948
20
-20.578779294218492
10
63.592714739900977
20
-12.015940974387076
10
71.51222909753767
20
-0.71249450532065972
10
76.818417084694545
20
12.927281568245231
10
78.453519620572493
20
28.057401831488164
10
75.68926310211647
20
43.351353480159602
10
68.597551300852786
20
57.373306139875609
10
57.962739779945416
20
69.053003713836844
10
44.800662740383395
20
77.765850632657362
10
30.082702616761644
20
83.148624233234301
10
14.741693329449131
20
85.027019237950725
10
-0.31197514984969354
20
83.492274449429146
10
-14.283598159891204
20
78.939522737768399
0
LWPOLYLINE
5
101
100
AcDbEntity
8
0
100
AcDbPolyline
90
36
70
1
43
0.0
10
-24.884064836609802
20
69.49611731590268
10
-34.823173194592762
20
61.105486167337482
10
-42.757989975904465
20
51.567201074317424
10
-48.670917839379456
20
41.341229362098986
10
-52.589799947703554
20
30.799061480130501
10
-54.550292805019524
20
20.259092565187231
10
-54.591895108843232
20
10.027426541295959
10
-52.785849271003904
20
0.42497144792391073
10
-49.278015146784711
20
-8.2156241620185479
10
-44.32122079698167
20
-15.585995227190557
10
-38.277152565285483
20
-21.458063047491024
10
-31.582393651169728
20
-25.739490786916978
10
-24.682754835880353
20
-28.506807639914506
10
-17.949801075387409
20
-29.994530324474415
10
-11.6078651925553
20
-30.527872167185382
10
-5.7089170922752679
20
-30.423660034373942
10
-0.1609805708610485
20
-29.927754943494861
10
5.2390543839102879
20
-29.244440249793723
10
10.814732944026728
20
-28.601218269538052
10
17.023908801378791
20
-28.161505271089705
10
24.351522125207502
20
-27.708310441917043
10
32.985240001878225
20
-26.485671857170491
10
42.553264746745185
20
-23.523132883804898
10
52.285921717759564
20
-18.119561940224369
10
61.333713359264081
20
-10.011958903031857
10
68.84756879952154
20
0.71249450532066039
10
73.878474613562588
20
13.644646347058988
10
75.424399813720512
20
27.94958055340728
10
72.814856849069713
20
42.387540149426201
10
66.104617364446682
20
55.655233905956905
10
55.995696130961633
20
66.757371689403669
10
43.438894979642612
20
75.069546575834238
10
29.375976153242348
20
80.212753077957586
10
14.711149776259386
20
82.008354403506658
10
0.31197514984970282
20
80.540336275746995
10
-13.068213191719986
20
76.180307714237486
0
ENDSEC
0
SECTION
2
OBJECTS
0
DICTIONARY
5
C
100
AcDbDictionary
3
ACAD_GROUP
350
D
3
ACAD_MLINESTYLE
350
17
0
DICTIONARY
5
D
100
AcDbDictionary
0
DICTIONARY
5
1A
330
C
100
AcDbDictionary
0
DICTIONARY
5
17
100
AcDbDictionary
0
ENDSEC
0
EOF
