0
SECTION
2
HEADER
9
$INSUNITS
70
4
9
$ACADVER
1
AC1014
9
$HANDSEED
5
FFFF
0
ENDSEC
0
SECTION
2
TABLES
0
TABLE
2
VPORT
5
8
100
AcDbSymbolTable
0
ENDTAB
0
TABLE
2
LTYPE
5
5
100
AcDbSymbolTable
0
LTYPE
5
14
100
AcDbSymbolTableRecord
100
AcDbLinetypeTableRecord
2
BYBLOCK
70
0
0
LTYPE
5
15
100
AcDbSymbolTableRecord
100
AcDbLinetypeTableRecord
2
BYLAYER
70
0
0
ENDTAB
0
TABLE
2
LAYER
5
2
100
AcDbSymbolTable
70
2
0
LAYER
5
50
100
AcDbSymbolTableRecord
100
AcDbLayerTableRecord
2
0
70
0
6
CONTINUOUS
0
ENDTAB
0
TABLE
2
STYLE
5
3
100
AcDbSymbolTable
70
1
0
STYLE
5
11
100
AcDbSymbolTableRecord
100
AcDbTextStyleTableRecord
2
STANDARD
70
0
0
ENDTAB
0
TABLE
2
VIEW
5
6
100
AcDbSymbolTable
70
0
0
ENDTAB
0
TABLE
2
UCS
5
7
100
AcDbSymbolTable
70
0
0
ENDTAB
0
TABLE
2
APPID
5
9
100
AcDbSymbolTable
70
2
0
APPID
5
12
100
AcDbSymbolTableRecord
100
AcDbRegAppTableRecord
2
ACAD
70
0
0
ENDTAB
0
TABLE
2
DIMSTYLE
5
A
100
AcDbSymbolTable
70
1
0
ENDTAB
0
TABLE
2
BLOCK_RECORD
5
1
100
AcDbSymbolTable
70
1
0
BLOCK_RECORD
5
1F
100
AcDbSymbolTableRecord
100
AcDbBlockTableRecord
2
*MODEL_SPACE
0
BLOCK_RECORD
5
1B
100
AcDbSymbolTableRecord
100
AcDbBlockTableRecord
2
*PAPER_SPACE
0
ENDTAB
0
ENDSEC
0
SECTION
2
BLOCKS
0
BLOCK
5
20
100
AcDbEntity
100
AcDbBlockBegin
2
*MODEL_SPACE
0
ENDBLK
5
21
100
AcDbEntity
100
AcDbBlockEnd
0
BLOCK
5
1C
100
AcDbEntity
100
AcDbBlockBegin
2
*PAPER_SPACE
0
ENDBLK
5
1D
100
AcDbEntity
100
AcDbBlockEnd
0
ENDSEC
0
SECTION
2
ENTITIES
0
LWPOLYLINE
5
100
100
AcDbEntity
8
0
100
AcDbPolyline
90
13
70
1
43
0.0
10
4.9999999999999796
20
27.295833015315736
10
4.9999999999999893
20
81.33238177704014
10
0.28378957657835491
20
80.918454141091843
10
-13.233304290976333
20
76.86794744238928
10
-25.335424104090663
20
70.565429637958488
10
-35.7412577211553
20
62.552736844719384
10
-44.309369033476067
20
53.29176261846974
10
-50.960976711699651
20
43.155052130865627
10
-55.634417383091318
20
32.464118197871954
10
-58.277229700821636
20
21.535151265325354
10
-58.860845616699024
20
10.709057572748513
10
-58.056936041197105
20
4.9999999999999867
10
-17.295833015315747
20
5.0000000000000178
42
-0.31165434975066597
0
LWPOLYLINE
5
101
100
AcDbEntity
8
0
100
AcDbPolyline
90
11
70
1
43
0.0
10
15.00000000000002
20
27.295833015315722
10
15.000000000000002
20
82.151236328986926
10
29.408234047986809
20
80.305551802153161
10
43.533928407092574
20
75.1999339228921
10
56.327163732887385
20
67.07703940646239
10
67.046488844741503
20
56.322166949736626
10
74.913272408056542
20
43.436757709418217
10
79.124870433128734
20
29.127623927043629
10
79.147759011256468
20
14.432914958498539
10
76.405326066605795
20
4.9999999999999858
10
37.295833015315729
20
4.9999999999999725
42
0.31165434975066642
0
LWPOLYLINE
5
102
100
AcDbEntity
8
0
100
AcDbPolyline
90
51
70
1
43
0.0
10
15
20
85.175750314556694
10
15
20
91.500000000000043
10
19.58840189269339
20
90.681545769861287
10
20.000000149011615
20
90.681545769861287
10
20.000000149011608
20
100.00000007450581
10
-1.4901161193847654e-07
20
100.00000007450581
10
-1.4901161748959169e-07
20
90.681545769861287
10
4.6838810052145874
20
91.296410987919998
10
4.9999999999999911
20
91.296410987919998
10
4.9999999999999902
20
84.343914180180775
10
-0.28378957657835047
20
83.880171825212955
10
-14.366810283585082
20
79.660080563686677
10
-26.955948029732156
20
73.1039345320184
10
-37.771762248227446
20
64.775548760077044
10
-46.680791532569408
20
55.146088126838997
10
-53.608270179568869
20
44.588964368083765
10
-58.488570502116197
20
33.424819578376983
10
-61.258029198693116
20
21.972124919402191
10
-61.872189389470918
20
10.579433961658829
10
-61.086532504686929
20
4.999999999999984
10
-95.000000149011598
20
4.9999999999999547
10
-95.000000149011598
20
-5.000000074505806
10
-58.66364309528862
20
-5.0000000745058069
10
-56.713778736955717
20
-10.422104628887926
10
-51.216402249443462
20
-19.154626332316735
10
-44.193983224268123
20
-26.156619327841479
10
-36.16553391645121
20
-31.157845813245537
10
-27.764565284855681
20
-34.121433931413499
10
-19.620959169761928
20
-35.308320564151074
10
-12.198299657792992
20
-35.243936846133813
10
-5.6653567986979114
20
-34.569288379812733
10
0.13161128114656104
20
-33.866726994224479
10
5.6569130322095509
20
-33.562492753583257
10
11.671772602924973
20
-33.86321145972834
10
18.996384496585897
20
-34.562356312486301
10
28.036262407866651
20
-34.827884921842902
10
38.509550033157808
20
-33.493803684968924
10
49.642924715579483
20
-29.649655740252598
10
60.54010719925212
20
-22.876167783157197
10
70.302374102720066
20
-13.119801832196185
10
75.232672507242469
20
-5.0000000745058069
10
115.00000171363355
20
-5.0000000745058069
10
115.00000171363355
20
4.9999999999999991
10
79.529540571398854
20
4.9999999999999867
10
82.148424572382922
20
14.007954092602873
10
82.12419711612732
20
29.562236964065775
10
77.67965524729901
20
44.662810148834367
10
69.421982442180308
20
58.188476974446687
10
58.216652886552382
20
69.430965559207337
10
44.863698117977144
20
77.909246487026905
10
30.11720473850464
20
83.239247146860407
0
LWPOLYLINE
5
103
100
AcDbEntity
8
0
100
AcDbPolyline
90
23
70
1
43
0.0
10
37.295833001667887
20
-5.0000000745058069
10
71.722948061003166
20
-5.0000000745058069
10
67.925822118928906
20
-11.253558656344431
10
58.663415626131908
20
-20.510366344954406
10
48.345337391937292
20
-26.923893764945895
10
37.823211893657799
20
-30.556988694565224
10
27.889875811089652
20
-31.822291220518629
10
19.183156491553483
20
-31.56654848862955
10
11.889313494879854
20
-30.870340571816598
10
5.6493244451789586
20
-30.558366300210729
10
-0.13161128114657195
20
-30.876676262296687
10
-5.9999379998228086
20
-31.587885931518869
10
-12.365765162786349
20
-32.245276578427621
10
-19.416437406099163
20
-32.306433700455599
10
-27.042420165061994
20
-31.194987877784452
10
-34.857941738738347
20
-28.437926413952546
10
-42.317729114155355
20
-23.790941078802803
10
-48.858159070972846
20
-17.269535195562607
10
-54.001165046705523
20
-9.0999271277925118
10
-55.475555950235353
20
-5.0000000745058069
10
-17.295833001667891
20
-5.0000000745058069
10
-12.377664893259272
20
-4.0990991601804012
42
-1.1998168391675241
10
32.377664893259265
20
-4.099099160180427
0
CIRCLE
5
104
100
AcDbEntity
8
0
100
AcDbCircle
10
17.499999292194847
20
95
30
0
40
1.6000000000000014
210
0
220
-0
230
1
0
CIRCLE
5
105
100
AcDbEntity
8
0
100
AcDbCircle
10
2.4999991431832318
20
95
30
0
40
1.6000000000000014
210
0
220
-0
230
1
0
CIRCLE
5
106
100
AcDbEntity
8
0
100
AcDbCircle
10
-92.500000856816783
20
0
30
0
40
1.6000000000000014
210
0
220
-0
230
1
0
CIRCLE
5
107
100
AcDbEntity
8
0
100
AcDbCircle
10
112.50000085681677
20
0
30
0
40
1.6000000000000014
210
0
220
-0
230
1
0
CIRCLE
5
108
100
AcDbEntity
8
0
100
AcDbCircle
10
-77.500000707805157
20
0
30
0
40
1.6000000000000014
210
0
220
-0
230
1
0
CIRCLE
5
109
100
AcDbEntity
8
0
100
AcDbCircle
10
97.500000707805157
20
0
30
0
40
1.6000000000000014
210
0
220
-0
230
1
0
ENDSEC
0
SECTION
2
OBJECTS
0
DICTIONARY
5
C
100
AcDbDictionary
3
ACAD_GROUP
350
D
3
ACAD_MLINESTYLE
350
17
0
DICTIONARY
5
D
100
AcDbDictionary
0
DICTIONARY
5
1A
330
C
100
AcDbDictionary
0
DICTIONARY
5
17
100
AcDbDictionary
0
ENDSEC
0
EOF
