0
SECTION
2
HEADER
9
$INSUNITS
70
4
9
$ACADVER
1
AC1014
9
$HANDSEED
5
FFFF
0
ENDSEC
0
SECTION
2
TABLES
0
TABLE
2
VPORT
5
8
100
AcDbSymbolTable
0
ENDTAB
0
TABLE
2
LTYPE
5
5
100
AcDbSymbolTable
0
LTYPE
5
14
100
AcDbSymbolTableRecord
100
AcDbLinetypeTableRecord
2
BYBLOCK
70
0
0
LTYPE
5
15
100
AcDbSymbolTableRecord
100
AcDbLinetypeTableRecord
2
BYLAYER
70
0
0
ENDTAB
0
TABLE
2
LAYER
5
2
100
AcDbSymbolTable
70
2
0
LAYER
5
50
100
AcDbSymbolTableRecord
100
AcDbLayerTableRecord
2
0
70
0
6
CONTINUOUS
0
ENDTAB
0
TABLE
2
STYLE
5
3
100
AcDbSymbolTable
70
1
0
STYLE
5
11
100
AcDbSymbolTableRecord
100
AcDbTextStyleTableRecord
2
STANDARD
70
0
0
ENDTAB
0
TABLE
2
VIEW
5
6
100
AcDbSymbolTable
70
0
0
ENDTAB
0
TABLE
2
UCS
5
7
100
AcDbSymbolTable
70
0
0
ENDTAB
0
TABLE
2
APPID
5
9
100
AcDbSymbolTable
70
2
0
APPID
5
12
100
AcDbSymbolTableRecord
100
AcDbRegAppTableRecord
2
ACAD
70
0
0
ENDTAB
0
TABLE
2
DIMSTYLE
5
A
100
AcDbSymbolTable
70
1
0
ENDTAB
0
TABLE
2
BLOCK_RECORD
5
1
100
AcDbSymbolTable
70
1
0
BLOCK_RECORD
5
1F
100
AcDbSymbolTableRecord
100
AcDbBlockTableRecord
2
*MODEL_SPACE
0
BLOCK_RECORD
5
1B
100
AcDbSymbolTableRecord
100
AcDbBlockTableRecord
2
*PAPER_SPACE
0
ENDTAB
0
ENDSEC
0
SECTION
2
BLOCKS
0
BLOCK
5
20
100
AcDbEntity
100
AcDbBlockBegin
2
*MODEL_SPACE
0
ENDBLK
5
21
100
AcDbEntity
100
AcDbBlockEnd
0
BLOCK
5
1C
100
AcDbEntity
100
AcDbBlockBegin
2
*PAPER_SPACE
0
ENDBLK
5
1D
100
AcDbEntity
100
AcDbBlockEnd
0
ENDSEC
0
SECTION
2
ENTITIES
0
LWPOLYLINE
5
100
100
AcDbEntity
8
0
100
AcDbPolyline
90
4
70
1
43
0.0
10
49.380769230769232
20
-14.996153846153842
10
45.419230769230779
20
-24.503846153846155
10
50.311538461538461
20
-26.542307692307695
10
54.273076923076935
20
-17.034615384615382
0
LWPOLYLINE
5
101
100
AcDbEntity
8
0
100
AcDbPolyline
90
4
70
1
43
0.0
10
49.118336091121257
20
-14.646081276090968
10
51.054871031503026
20
-4.5297661156839659
10
45.849388473235351
20
-3.5332966803418802
10
43.912853532853582
20
-13.649611840748882
0
LWPOLYLINE
5
102
100
AcDbEntity
8
0
100
AcDbPolyline
90
4
70
1
43
0.0
10
39.706508737364175
20
6.5621637641290196
10
40.071758083575745
20
-3.7313581266084785
10
45.368424687547474
20
-3.5434142882665984
10
45.00317534133589
20
6.750107602470897
0
LWPOLYLINE
5
103
100
AcDbEntity
8
0
100
AcDbPolyline
90
4
70
1
43
0.0
10
39.243162022484654
20
6.4782275918129715
10
36.263831520749591
20
16.337922808270275
10
31.190396118106499
20
14.804869249125039
10
34.169726619841576
20
4.9451740326677376
0
LWPOLYLINE
5
104
100
AcDbEntity
8
0
100
AcDbPolyline
90
4
70
1
43
0.0
10
24.85751366636066
20
23.46386815609598
10
20.499240275395284
20
20.448001274152556
10
26.360264593134374
20
11.978149212465119
10
30.718537984099754
20
14.994016094408538
0
LWPOLYLINE
5
105
100
AcDbEntity
8
0
100
AcDbPolyline
90
4
70
1
43
0.0
10
17.671084879821699
20
16.996203020418008
10
20.634044198145837
20
21.390616755827558
10
12.093957127444256
20
27.148820714080145
10
9.1309978091201138
20
22.754406978670584
0
LWPOLYLINE
5
106
100
AcDbEntity
8
0
100
AcDbPolyline
90
4
70
1
43
0.0
10
9.1112719171581205
20
25.740399863841358
10
-1.0723593214042959
20
27.284308798000289
10
-1.8667978991753931
20
22.044187869419623
10
8.3168333393870206
20
20.500278935260702
0
LWPOLYLINE
5
107
100
AcDbEntity
8
0
100
AcDbPolyline
90
4
70
1
43
0.0
10
-13.775985246788068
20
24.296399917515892
10
-12.056806275545966
20
19.282975572336348
10
-2.313736321706469
20
22.624021497580429
10
-4.0329152929485668
20
27.63744584275997
0
LWPOLYLINE
5
108
100
AcDbEntity
8
0
100
AcDbPolyline
90
4
70
1
43
0.0
10
-13.524903652377958
20
22.257207971419291
10
-17.118495065735029
20
26.152859489952021
10
-24.689289526279758
20
19.169087497956198
10
-21.09569811292269
20
15.273435979423475
0
LWPOLYLINE
5
109
100
AcDbEntity
8
0
100
AcDbPolyline
90
4
70
1
43
0.0
10
-34.324044642732325
20
11.856931996172285
10
-29.610562498385072
20
9.4334869122226497
10
-24.900848467313143
20
18.593650324822011
10
-29.614330611660385
20
21.017095408771659
0
LWPOLYLINE
5
110
100
AcDbEntity
8
0
100
AcDbPolyline
90
4
70
1
43
0.0
10
-39.934441904179224
20
12.82840840074593
10
-41.856743517163864
20
2.7093789755136477
10
-36.649864298355006
20
1.7202334853370893
10
-34.727562685370366
20
11.839262910569365
0
LWPOLYLINE
5
111
100
AcDbEntity
8
0
100
AcDbPolyline
90
4
70
1
43
0.0
10
-42.323797626935431
20
2.9473574873945054
10
-47.616589218048887
20
2.6710294702869386
10
-47.079574392349286
20
-7.6149617350845134
10
-41.786782801235816
20
-7.338633717976947
0
LWPOLYLINE
5
112
100
AcDbEntity
8
0
100
AcDbPolyline
90
4
70
1
43
0.0
10
-49.916648120421542
20
-18.786252245564466
10
-44.799229890081556
20
-17.407110970790988
10
-47.479447839169637
20
-7.4619396929604189
10
-52.596866069509637
20
-8.8410809677338946
0
LWPOLYLINE
5
113
100
AcDbEntity
8
0
100
AcDbPolyline
90
4
70
1
43
0.0
10
-50.028391619074938
20
-30.768096858950202
10
-45.28778351676862
20
-28.398152804684855
10
-49.893523848642793
20
-19.185272907749926
10
-54.634131950949097
20
-21.55521696201528
0
LWPOLYLINE
5
114
100
AcDbEntity
8
0
100
AcDbPolyline
90
4
70
1
43
0.0
10
-43.182381688220815
20
-39.065518018297922
10
-49.389767494106692
20
-30.846128657956918
10
-53.619162019330702
20
-34.040220383315656
10
-47.411776213444831
20
-42.259609743656661
0
LWPOLYLINE
5
115
100
AcDbEntity
8
0
100
AcDbPolyline
90
4
70
1
43
0.0
10
-46.12120044170635
20
-42.039228924387864
10
-49.73019310652812
20
-45.920616813437704
10
-42.187118529695439
20
-52.934319539412073
10
-38.578125864873655
20
-49.05293165036224
0
LWPOLYLINE
5
116
100
AcDbEntity
8
0
100
AcDbPolyline
90
4
70
1
43
0.0
10
-34.83469474406251
20
-61.952867540151402
10
-31.909174409264793
20
-57.533441019585084
10
-40.497871232252187
20
-51.847995840638568
10
-43.423391567049904
20
-56.267422361204893
0
LWPOLYLINE
5
117
100
AcDbEntity
8
0
100
AcDbPolyline
90
4
70
1
43
0.0
10
-23.675025709348748
20
-64.141007804654635
10
-33.041696700690004
20
-59.856678856036638
10
-35.246254315027429
20
-64.676422181678248
10
-25.87958332368617
20
-68.960751130296259
0
LWPOLYLINE
5
118
100
AcDbEntity
8
0
100
AcDbPolyline
90
4
70
1
43
0.0
10
-14.113857004202895
20
-68.77322153467604
10
-24.024501344238839
20
-65.968024791965561
10
-25.467952095342291
20
-71.067676733925794
10
-15.557307755306349
20
-73.872873476636315
0
LWPOLYLINE
5
119
100
AcDbEntity
8
0
100
AcDbPolyline
90
4
70
1
43
0.0
10
-13.919844237473665
20
-69.890802346082396
10
-14.57674489925153
20
-75.149935499041732
10
-4.3561653755758751
20
-76.426553766270402
10
-3.6992647137980135
20
-71.16742061331108
0
LWPOLYLINE
5
120
100
AcDbEntity
8
0
100
AcDbPolyline
90
4
70
1
43
0.0
10
-3.1089486981194439
20
-76.747360006409309
10
7.1874043216877768
20
-76.473289775434139
10
7.0463778921568565
20
-71.175166376892562
10
-3.2499751276503623
20
-71.449236607867746
0
LWPOLYLINE
5
121
100
AcDbEntity
8
0
100
AcDbPolyline
90
4
70
1
43
0.0
10
8.3769689155216263
20
-75.806398121223623
10
18.514891963077098
20
-73.98636617594255
10
17.578370670845086
20
-68.769764996132466
10
7.4404476232896162
20
-70.589796941413553
0
LWPOLYLINE
5
122
100
AcDbEntity
8
0
100
AcDbPolyline
90
4
70
1
43
0.0
10
17.611515914051022
20
-67.382665473444135
10
19.327237030568284
20
-72.397274236880904
10
29.072608778379355
20
-69.062948293460565
10
27.356887661862093
20
-64.048339530023824
0
LWPOLYLINE
5
123
100
AcDbEntity
8
0
100
AcDbPolyline
90
4
70
1
43
0.0
10
38.338321686883333
20
-61.920660511738745
10
35.87393675269891
20
-57.228453472810813
10
26.755119299688019
20
-62.017729854339045
10
29.219504233872442
20
-66.709936893266971
0
LWPOLYLINE
5
124
100
AcDbEntity
8
0
100
AcDbPolyline
90
4
70
1
43
0.0
10
37.807281130121204
20
-58.79299161182071
10
46.036628580409477
20
-52.598813656479599
10
42.849333127661126
20
-48.364295065554543
10
34.61998567737286
20
-54.558473020895669
0
LWPOLYLINE
5
125
100
AcDbEntity
8
0
100
AcDbPolyline
90
4
70
1
43
0.0
10
44.362741188656436
20
-49.213297931352507
10
51.454011279267313
20
-41.743097900429134
10
47.610121942966927
20
-38.094191931474029
10
40.518851852356065
20
-45.564391962397394
0
LWPOLYLINE
5
126
100
AcDbEntity
8
0
100
AcDbPolyline
90
4
70
1
43
0.0
10
54.325139503813759
20
-29.565139831856165
10
49.897014509630068
20
-26.652802448261031
10
44.237189028303661
20
-35.258403852051956
10
48.665314022487351
20
-38.1707412356471
0
ENDSEC
0
SECTION
2
OBJECTS
0
DICTIONARY
5
C
100
AcDbDictionary
3
ACAD_GROUP
350
D
3
ACAD_MLINESTYLE
350
17
0
DICTIONARY
5
D
100
AcDbDictionary
0
DICTIONARY
5
1A
330
C
100
AcDbDictionary
0
DICTIONARY
5
17
100
AcDbDictionary
0
ENDSEC
0
EOF
