0
SECTION
2
HEADER
9
$INSUNITS
70
4
9
$ACADVER
1
AC1014
9
$HANDSEED
5
FFFF
0
ENDSEC
0
SECTION
2
TABLES
0
TABLE
2
VPORT
5
8
100
AcDbSymbolTable
0
ENDTAB
0
TABLE
2
LTYPE
5
5
100
AcDbSymbolTable
0
LTYPE
5
14
100
AcDbSymbolTableRecord
100
AcDbLinetypeTableRecord
2
BYBLOCK
70
0
0
LTYPE
5
15
100
AcDbSymbolTableRecord
100
AcDbLinetypeTableRecord
2
BYLAYER
70
0
0
ENDTAB
0
TABLE
2
LAYER
5
2
100
AcDbSymbolTable
70
2
0
LAYER
5
50
100
AcDbSymbolTableRecord
100
AcDbLayerTableRecord
2
0
70
0
6
CONTINUOUS
0
ENDTAB
0
TABLE
2
STYLE
5
3
100
AcDbSymbolTable
70
1
0
STYLE
5
11
100
AcDbSymbolTableRecord
100
AcDbTextStyleTableRecord
2
STANDARD
70
0
0
ENDTAB
0
TABLE
2
VIEW
5
6
100
AcDbSymbolTable
70
0
0
ENDTAB
0
TABLE
2
UCS
5
7
100
AcDbSymbolTable
70
0
0
ENDTAB
0
TABLE
2
APPID
5
9
100
AcDbSymbolTable
70
2
0
APPID
5
12
100
AcDbSymbolTableRecord
100
AcDbRegAppTableRecord
2
ACAD
70
0
0
ENDTAB
0
TABLE
2
DIMSTYLE
5
A
100
AcDbSymbolTable
70
1
0
ENDTAB
0
TABLE
2
BLOCK_RECORD
5
1
100
AcDbSymbolTable
70
1
0
BLOCK_RECORD
5
1F
100
AcDbSymbolTableRecord
100
AcDbBlockTableRecord
2
*MODEL_SPACE
0
BLOCK_RECORD
5
1B
100
AcDbSymbolTableRecord
100
AcDbBlockTableRecord
2
*PAPER_SPACE
0
ENDTAB
0
ENDSEC
0
SECTION
2
BLOCKS
0
BLOCK
5
20
100
AcDbEntity
100
AcDbBlockBegin
2
*MODEL_SPACE
0
ENDBLK
5
21
100
AcDbEntity
100
AcDbBlockEnd
0
BLOCK
5
1C
100
AcDbEntity
100
AcDbBlockBegin
2
*PAPER_SPACE
0
ENDBLK
5
1D
100
AcDbEntity
100
AcDbBlockEnd
0
ENDSEC
0
SECTION
2
ENTITIES
0
LWPOLYLINE
5
100
100
AcDbEntity
8
0
100
AcDbPolyline
90
4
70
1
43
0.0
10
65.7269230769231
20
-32.965384615384615
10
70.619230769230782
20
-35.003846153846155
10
74.580769230769235
20
-25.496153846153842
10
69.688461538461553
20
-23.457692307692298
0
LWPOLYLINE
5
101
100
AcDbEntity
8
0
100
AcDbPolyline
90
4
70
1
43
0.0
10
68.492448516456534
20
-11.91162649323282
10
65.980769573380741
20
-21.900693961565878
10
71.120775163882229
20
-23.193111281789346
10
73.632454106957994
20
-13.204043813456286
0
LWPOLYLINE
5
102
100
AcDbEntity
8
0
100
AcDbPolyline
90
4
70
1
43
0.0
10
69.719672110849189
20
-11.369525449305586
10
70.631909813139117
20
-1.1100019528404248
10
65.35273752855025
20
-0.64059808661356066
10
64.440499826260307
20
-10.900121583078725
0
LWPOLYLINE
5
103
100
AcDbEntity
8
0
100
AcDbPolyline
90
4
70
1
43
0.0
10
65.809443099407375
20
10.052131844596977
10
60.524002043323726
20
9.6595597586491557
10
61.28692515375063
20
-0.612146444683207
10
66.572366209834271
20
-0.21957435873538864
0
LWPOLYLINE
5
104
100
AcDbEntity
8
0
100
AcDbPolyline
90
4
70
1
43
0.0
10
56.543321890220035
20
9.1522027088186384
10
61.677898770267404
20
10.466021670046954
10
59.124627958823702
20
20.444539002969194
10
53.990051078776339
20
19.130720041740879
0
LWPOLYLINE
5
105
100
AcDbEntity
8
0
100
AcDbPolyline
90
4
70
1
43
0.0
10
50.997856026474139
20
29.425645417839199
10
46.193129702688751
20
27.188547978404852
10
50.540696424608342
20
17.851060971803054
10
55.34542274839373
20
20.088158411237398
0
LWPOLYLINE
5
106
100
AcDbEntity
8
0
100
AcDbPolyline
90
4
70
1
43
0.0
10
47.439899028002003
20
28.845506342475289
10
41.295368704444442
20
37.111989700160215
10
37.041741345635707
20
33.950241087067482
10
43.18627166919326
20
25.683757729382574
0
LWPOLYLINE
5
107
100
AcDbEntity
8
0
100
AcDbPolyline
90
4
70
1
43
0.0
10
27.154199477668168
20
38.967491212201026
10
34.916455000928565
20
32.197159669978475
10
38.400217833334324
20
36.191329987772662
10
30.637962310073938
20
42.961661529995212
0
LWPOLYLINE
5
108
100
AcDbEntity
8
0
100
AcDbPolyline
90
4
70
1
43
0.0
10
28.013577415486761
20
42.194491391513715
10
18.897757598637426
20
46.989470960473014
10
16.43043801460983
20
42.298806394521407
10
25.546257831459158
20
37.503826825562122
0
LWPOLYLINE
5
109
100
AcDbEntity
8
0
100
AcDbPolyline
90
4
70
1
43
0.0
10
5.6816172772914406
20
43.728130254208459
10
15.670862711787429
20
41.217159197146849
10
16.962915779984172
20
46.357256362470032
10
6.9736703454881823
20
48.868227419531642
0
LWPOLYLINE
5
110
100
AcDbEntity
8
0
100
AcDbPolyline
90
4
70
1
43
0.0
10
-5.1499999999999986
20
48.650000000000006
10
-5.1499999999999986
20
43.350000000000001
10
5.1500000000000039
20
43.350000000000001
10
5.1500000000000039
20
48.650000000000006
0
LWPOLYLINE
5
111
100
AcDbEntity
8
0
100
AcDbPolyline
90
4
70
1
43
0.0
10
-16.962915779984179
20
46.357256362470025
10
-15.670862711787432
20
41.217159197146849
10
-5.6816172772914433
20
43.728130254208459
10
-6.9736703454881868
20
48.868227419531635
0
LWPOLYLINE
5
112
100
AcDbEntity
8
0
100
AcDbPolyline
90
4
70
1
43
0.0
10
-28.013577415486751
20
42.194491391513722
10
-25.546257831459158
20
37.503826825562136
10
-16.430438014609827
20
42.298806394521435
10
-18.897757598637423
20
46.989470960473021
0
LWPOLYLINE
5
113
100
AcDbEntity
8
0
100
AcDbPolyline
90
4
70
1
43
0.0
10
-27.154199477668172
20
38.967491212201026
10
-30.637962310073942
20
42.961661529995212
10
-38.400217833334345
20
36.191329987772662
10
-34.916455000928565
20
32.197159669978475
0
LWPOLYLINE
5
114
100
AcDbEntity
8
0
100
AcDbPolyline
90
4
70
1
43
0.0
10
-43.186271669193275
20
25.683757729382553
10
-37.041741345635728
20
33.950241087067482
10
-41.295368704444471
20
37.111989700160194
10
-47.439899028002024
20
28.845506342475275
0
LWPOLYLINE
5
115
100
AcDbEntity
8
0
100
AcDbPolyline
90
4
70
1
43
0.0
10
-46.193129702688758
20
27.188547978404838
10
-50.997856026474153
20
29.425645417839192
10
-55.345422748393752
20
20.088158411237387
10
-50.540696424608349
20
17.851060971803037
0
LWPOLYLINE
5
116
100
AcDbEntity
8
0
100
AcDbPolyline
90
4
70
1
43
0.0
10
-56.543321890220035
20
9.1522027088186384
10
-53.990051078776339
20
19.130720041740879
10
-59.124627958823702
20
20.444539002969201
10
-61.67789877026739
20
10.466021670046953
0
LWPOLYLINE
5
117
100
AcDbEntity
8
0
100
AcDbPolyline
90
4
70
1
43
0.0
10
-60.524002043323726
20
9.6595597586491486
10
-65.809443099407375
20
10.052131844596966
10
-66.572366209834271
20
-0.21957435873539849
10
-61.28692515375063
20
-0.61214644468321566
0
LWPOLYLINE
5
118
100
AcDbEntity
8
0
100
AcDbPolyline
90
4
70
1
43
0.0
10
-70.631909813139117
20
-1.1100019528404481
10
-69.719672110849174
20
-11.369525449305611
10
-64.440499826260307
20
-10.900121583078743
10
-65.35273752855025
20
-0.64059808661357742
0
LWPOLYLINE
5
119
100
AcDbEntity
8
0
100
AcDbPolyline
90
4
70
1
43
0.0
10
-65.980769573380741
20
-21.900693961565885
10
-68.492448516456534
20
-11.911626493232834
10
-73.632454106957994
20
-13.204043813456295
10
-71.120775163882215
20
-23.193111281789349
0
LWPOLYLINE
5
120
100
AcDbEntity
8
0
100
AcDbPolyline
90
4
70
1
43
0.0
10
-65.7269230769231
20
-32.965384615384615
10
-69.688461538461553
20
-23.457692307692305
10
-74.580769230769235
20
-25.496153846153842
10
-70.619230769230782
20
-35.003846153846148
0
LWPOLYLINE
5
121
100
AcDbEntity
8
0
100
AcDbPolyline
90
4
70
1
43
0.0
10
-63.687404416255845
20
-43.82219093916585
10
-68.947771112627237
20
-34.966766487469222
10
-73.504445830490553
20
-37.673557117640904
10
-68.244079134119147
20
-46.528981569337553
0
LWPOLYLINE
5
122
100
AcDbEntity
8
0
100
AcDbPolyline
90
4
70
1
43
0.0
10
-64.060985120694681
20
-57.494002618334022
10
-59.911871057368643
20
-54.196298494324395
10
-66.320616807802423
20
-46.132925880690784
10
-70.469730871128448
20
-49.43063000470039
0
LWPOLYLINE
5
123
100
AcDbEntity
8
0
100
AcDbPolyline
90
4
70
1
43
0.0
10
-61.901245142618436
20
-56.662044944789116
10
-65.583720301454292
20
-60.473786896253927
10
-58.175995376909462
20
-67.630295223802861
10
-54.493520218073613
20
-63.818553272338043
0
LWPOLYLINE
5
124
100
AcDbEntity
8
0
100
AcDbPolyline
90
4
70
1
43
0.0
10
-47.850268688781085
20
-72.135720002093933
10
-56.079616139069365
20
-65.941542046752829
10
-59.266911591817703
20
-70.176060637677878
10
-51.03756414152943
20
-76.370238593018968
0
LWPOLYLINE
5
125
100
AcDbEntity
8
0
100
AcDbPolyline
90
4
70
1
43
0.0
10
-42.623595428039344
20
-83.897868736115981
10
-39.968019985315195
20
-79.31115759762028
10
-48.881817103523829
20
-74.15032230326959
10
-51.537392546247972
20
-78.737033441765305
0
LWPOLYLINE
5
126
100
AcDbEntity
8
0
100
AcDbPolyline
90
4
70
1
43
0.0
10
-40.498220695957968
20
-81.091292340897482
10
-42.5930060262301
20
-85.959749429141837
10
-33.131664892472195
20
-90.030747335142394
10
-31.03687956220007
20
-85.16229024689801
0
LWPOLYLINE
5
127
100
AcDbEntity
8
0
100
AcDbPolyline
90
4
70
1
43
0.0
10
-31.146763295080522
20
-86.599302949690781
10
-32.658602788998166
20
-91.67910032208971
10
-22.78654374452481
20
-94.617203489514537
10
-21.274704250607172
20
-89.537406117115651
0
LWPOLYLINE
5
128
100
AcDbEntity
8
0
100
AcDbPolyline
90
4
70
1
43
0.0
10
-21.067776586766666
20
-90.545249679805693
10
-21.981065093991582
20
-95.765968414096108
10
-11.835140006597006
20
-97.540849852665303
10
-10.921851499372089
20
-92.320131118374903
0
LWPOLYLINE
5
129
100
AcDbEntity
8
0
100
AcDbPolyline
90
4
70
1
43
0.0
10
-0.23523480472038205
20
-93.432887880913796
10
-10.518114361950037
20
-92.839265095377101
10
-10.823570746740778
20
-98.130455547155464
10
-0.54069118951112216
20
-98.724078332692216
0
LWPOLYLINE
5
130
100
AcDbEntity
8
0
100
AcDbPolyline
90
4
70
1
43
0.0
10
10.823570746740813
20
-98.130455547155464
10
10.518114361950072
20
-92.839265095377101
10
0.23523480472041225
20
-93.432887880913796
10
0.54069118951115502
20
-98.724078332692201
0
LWPOLYLINE
5
131
100
AcDbEntity
8
0
100
AcDbPolyline
90
4
70
1
43
0.0
10
10.921851499372055
20
-92.320131118374903
10
11.835140006596976
20
-97.540849852665289
10
21.98106509399155
20
-95.765968414096108
10
21.06777658676663
20
-90.545249679805721
0
LWPOLYLINE
5
132
100
AcDbEntity
8
0
100
AcDbPolyline
90
4
70
1
43
0.0
10
31.146763295080575
20
-86.599302949690738
10
21.274704250607222
20
-89.537406117115609
10
22.78654374452487
20
-94.617203489514523
10
32.658602788998216
20
-91.679100322089639
0
LWPOLYLINE
5
133
100
AcDbEntity
8
0
100
AcDbPolyline
90
4
70
1
43
0.0
10
42.5930060262301
20
-85.959749429141851
10
40.498220695957954
20
-81.09129234089751
10
31.036879562200063
20
-85.162290246898053
10
33.131664892472187
20
-90.030747335142408
0
LWPOLYLINE
5
134
100
AcDbEntity
8
0
100
AcDbPolyline
90
4
70
1
43
0.0
10
48.881817103523851
20
-74.150322303269576
10
39.968019985315244
20
-79.311157597620252
10
42.623595428039387
20
-83.897868736115967
10
51.537392546248
20
-78.737033441765277
0
LWPOLYLINE
5
135
100
AcDbEntity
8
0
100
AcDbPolyline
90
4
70
1
43
0.0
10
47.850268688781064
20
-72.135720002093933
10
51.037564141529415
20
-76.370238593018968
10
59.266911591817681
20
-70.176060637677836
10
56.079616139069344
20
-65.941542046752801
0
LWPOLYLINE
5
136
100
AcDbEntity
8
0
100
AcDbPolyline
90
4
70
1
43
0.0
10
58.175995376909498
20
-67.630295223802818
10
65.583720301454335
20
-60.473786896253912
10
61.901245142618464
20
-56.662044944789102
10
54.493520218073641
20
-63.818553272338036
0
LWPOLYLINE
5
137
100
AcDbEntity
8
0
100
AcDbPolyline
90
4
70
1
43
0.0
10
59.911871057368657
20
-54.19629849432436
10
64.06098512069471
20
-57.494002618333973
10
70.469730871128476
20
-49.430630004700326
10
66.320616807802452
20
-46.132925880690721
0
LWPOLYLINE
5
138
100
AcDbEntity
8
0
100
AcDbPolyline
90
4
70
1
43
0.0
10
68.947771112627237
20
-34.966766487469172
10
63.687404416255866
20
-43.822190939165814
10
68.244079134119175
20
-46.528981569337503
10
73.504445830490553
20
-37.673557117640854
0
ENDSEC
0
SECTION
2
OBJECTS
0
DICTIONARY
5
C
100
AcDbDictionary
3
ACAD_GROUP
350
D
3
ACAD_MLINESTYLE
350
17
0
DICTIONARY
5
D
100
AcDbDictionary
0
DICTIONARY
5
1A
330
C
100
AcDbDictionary
0
DICTIONARY
5
17
100
AcDbDictionary
0
ENDSEC
0
EOF
