0
SECTION
2
HEADER
9
$INSUNITS
70
4
9
$ACADVER
1
AC1014
9
$HANDSEED
5
FFFF
0
ENDSEC
0
SECTION
2
TABLES
0
TABLE
2
VPORT
5
8
100
AcDbSymbolTable
0
ENDTAB
0
TABLE
2
LTYPE
5
5
100
AcDbSymbolTable
0
LTYPE
5
14
100
AcDbSymbolTableRecord
100
AcDbLinetypeTableRecord
2
BYBLOCK
70
0
0
LTYPE
5
15
100
AcDbSymbolTableRecord
100
AcDbLinetypeTableRecord
2
BYLAYER
70
0
0
ENDTAB
0
TABLE
2
LAYER
5
2
100
AcDbSymbolTable
70
2
0
LAYER
5
50
100
AcDbSymbolTableRecord
100
AcDbLayerTableRecord
2
0
70
0
6
CONTINUOUS
0
ENDTAB
0
TABLE
2
STYLE
5
3
100
AcDbSymbolTable
70
1
0
STYLE
5
11
100
AcDbSymbolTableRecord
100
AcDbTextStyleTableRecord
2
STANDARD
70
0
0
ENDTAB
0
TABLE
2
VIEW
5
6
100
AcDbSymbolTable
70
0
0
ENDTAB
0
TABLE
2
UCS
5
7
100
AcDbSymbolTable
70
0
0
ENDTAB
0
TABLE
2
APPID
5
9
100
AcDbSymbolTable
70
2
0
APPID
5
12
100
AcDbSymbolTableRecord
100
AcDbRegAppTableRecord
2
ACAD
70
0
0
ENDTAB
0
TABLE
2
DIMSTYLE
5
A
100
AcDbSymbolTable
70
1
0
ENDTAB
0
TABLE
2
BLOCK_RECORD
5
1
100
AcDbSymbolTable
70
1
0
BLOCK_RECORD
5
1F
100
AcDbSymbolTableRecord
100
AcDbBlockTableRecord
2
*MODEL_SPACE
0
BLOCK_RECORD
5
1B
100
AcDbSymbolTableRecord
100
AcDbBlockTableRecord
2
*PAPER_SPACE
0
ENDTAB
0
ENDSEC
0
SECTION
2
BLOCKS
0
BLOCK
5
20
100
AcDbEntity
100
AcDbBlockBegin
2
*MODEL_SPACE
0
ENDBLK
5
21
100
AcDbEntity
100
AcDbBlockEnd
0
BLOCK
5
1C
100
AcDbEntity
100
AcDbBlockBegin
2
*PAPER_SPACE
0
ENDBLK
5
1D
100
AcDbEntity
100
AcDbBlockEnd
0
ENDSEC
0
SECTION
2
ENTITIES
0
LWPOLYLINE
5
100
100
AcDbEntity
8
0
100
AcDbPolyline
90
4
70
1
43
0.0
10
43.949999999999882
20
-5.1500000000000004
10
43.949999999999882
20
5.1500000000000004
10
38.649999999999878
20
5.1500000000000004
10
38.649999999999878
20
-5.1500000000000004
0
LWPOLYLINE
5
101
100
AcDbEntity
8
0
100
AcDbPolyline
90
4
70
1
43
0.0
10
40.497030314701952
20
-15.432291446780745
10
45.389338007009641
20
-17.470752985242285
10
49.35087646854808
20
-7.9630606775499944
10
44.458568776240412
20
-5.9245991390884543
0
LWPOLYLINE
5
102
100
AcDbEntity
8
0
100
AcDbPolyline
90
4
70
1
43
0.0
10
33.289193955155525
20
0.39653098385809488
10
38.515258055496048
20
1.2787180496961783
10
36.800819040754121
20
11.43503130130135
10
31.574754940413598
20
10.552844235463262
0
LWPOLYLINE
5
103
100
AcDbEntity
8
0
100
AcDbPolyline
90
4
70
1
43
0.0
10
30.562843341409248
20
10.206535898579013
10
25.780732282126291
20
19.329113046330832
10
21.086590642991858
20
16.868415122622125
10
25.868701702274819
20
7.7458379748703052
0
LWPOLYLINE
5
104
100
AcDbEntity
8
0
100
AcDbPolyline
90
4
70
1
43
0.0
10
19.970021696514809
20
17.302363371342995
10
11.837439231504835
20
23.623051818799674
10
8.5850461468912016
20
19.438324919328512
10
16.71762861190118
20
13.117636471871839
0
LWPOLYLINE
5
105
100
AcDbEntity
8
0
100
AcDbPolyline
90
4
70
1
43
0.0
10
-2.4282351899626993
20
23.201023808136142
10
-3.0538685029426293
20
17.938079484120383
10
7.1741176361823475
20
16.72222606455561
10
7.799750949162279
20
21.985170388571376
0
LWPOLYLINE
5
106
100
AcDbEntity
8
0
100
AcDbPolyline
90
4
70
1
43
0.0
10
-4.0988725218106055
20
19.266202213834973
10
-6.5187792537755973
20
23.981501929504226
10
-15.682474927623385
20
19.278664318326971
10
-13.262568195658396
20
14.563364602657725
0
LWPOLYLINE
5
107
100
AcDbEntity
8
0
100
AcDbPolyline
90
4
70
1
43
0.0
10
-16.433502676689493
20
18.375912314028774
10
-20.713906283019128
20
21.50131548272882
10
-26.787803007096571
20
13.182795266654244
10
-22.507399400766932
20
10.057392097954203
0
LWPOLYLINE
5
108
100
AcDbEntity
8
0
100
AcDbPolyline
90
4
70
1
43
0.0
10
-27.84501254346527
20
13.334990486038382
10
-32.940021422916828
20
14.794745437497607
10
-35.776903687073435
20
4.8931244076200411
10
-30.68189480762188
20
3.4333694561608166
0
LWPOLYLINE
5
109
100
AcDbEntity
8
0
100
AcDbPolyline
90
4
70
1
43
0.0
10
-36.779787606809258
20
5.2886090292853458
10
-42.079749990448363
20
5.3085773043835571
10
-42.118556260922247
20
-4.9913495921226474
10
-36.818593877283142
20
-5.0113178672208569
0
LWPOLYLINE
5
110
100
AcDbEntity
8
0
100
AcDbPolyline
90
4
70
1
43
0.0
10
-48.307363499875386
20
-6.5533315976310513
10
-45.852275949532554
20
-16.556458364804982
10
-40.70503596254013
20
-15.293160887444106
10
-43.160123512882969
20
-5.2900341202701728
0
LWPOLYLINE
5
111
100
AcDbEntity
8
0
100
AcDbPolyline
90
4
70
1
43
0.0
10
-46.349297491042435
20
-17.701943786114281
10
-51.077450320362445
20
-20.096640180773356
10
-46.423606383572171
20
-29.285314547187724
10
-41.695453554252154
20
-26.890618152528653
0
LWPOLYLINE
5
112
100
AcDbEntity
8
0
100
AcDbPolyline
90
4
70
1
43
0.0
10
-39.465597027486169
20
-38.290189084827695
10
-45.913999805255195
20
-30.25849551400087
10
-50.046813001894222
20
-33.576605681202395
10
-43.598410224125232
20
-41.608299252029227
0
LWPOLYLINE
5
113
100
AcDbEntity
8
0
100
AcDbPolyline
90
4
70
1
43
0.0
10
-37.719982019258204
20
-52.616034800192182
10
-34.299122245230706
20
-48.567860099609149
10
-42.166329682212833
20
-41.91977412366893
10
-45.587189456240324
20
-45.967948824251948
0
LWPOLYLINE
5
114
100
AcDbEntity
8
0
100
AcDbPolyline
90
4
70
1
43
0.0
10
-26.718641712173572
20
-57.00136883275961
10
-35.656028763757135
20
-51.881494548151977
10
-38.290527182050376
20
-56.480344196054219
10
-29.353140130466812
20
-61.600218480661837
0
LWPOLYLINE
5
115
100
AcDbEntity
8
0
100
AcDbPolyline
90
4
70
1
43
0.0
10
-28.60357417477795
20
-64.751144806666773
10
-18.904075064193357
20
-68.216648666680314
10
-17.120854631370854
20
-63.225644269971738
10
-26.820353741955447
20
-59.760140409958197
0
LWPOLYLINE
5
116
100
AcDbEntity
8
0
100
AcDbPolyline
90
4
70
1
43
0.0
10
-6.4415682563819043
20
-66.70905808223327
10
-16.587493343776472
20
-64.934176643664074
10
-17.500781851001403
20
-70.154895377954489
10
-7.3548567636068238
20
-71.929776816523685
0
LWPOLYLINE
5
117
100
AcDbEntity
8
0
100
AcDbPolyline
90
4
70
1
43
0.0
10
4.8512416121629434
20
-67.371830417018714
10
-5.4486570826704046
20
-67.326148077211244
10
-5.4721635293674531
20
-72.626095949309956
10
4.8277351654658984
20
-72.671778289117441
0
LWPOLYLINE
5
118
100
AcDbEntity
8
0
100
AcDbPolyline
90
4
70
1
43
0.0
10
16.884260431401259
20
-70.359939569033884
10
16.01747828306841
20
-65.131298377736513
10
5.8561567226225915
20
-66.815799533930559
10
6.7229388709554421
20
-72.044440725227915
0
LWPOLYLINE
5
119
100
AcDbEntity
8
0
100
AcDbPolyline
90
4
70
1
43
0.0
10
28.054126415698327
20
-65.104446343419028
10
26.315878674587132
20
-60.097601549487237
10
16.585595395814046
20
-63.475705650137314
10
18.323843136925248
20
-68.482550444069091
0
LWPOLYLINE
5
120
100
AcDbEntity
8
0
100
AcDbPolyline
90
4
70
1
43
0.0
10
37.84676993995101
20
-56.964201247955586
10
35.254552758138274
20
-52.341387161025992
10
26.270593306180736
20
-57.379092250209254
10
28.862810487993478
20
-62.001906337138848
0
LWPOLYLINE
5
121
100
AcDbEntity
8
0
100
AcDbPolyline
90
4
70
1
43
0.0
10
45.280048966083612
20
-46.551338713562288
10
41.897543921103725
20
-42.471061808659208
10
33.967949181386395
20
-49.044609348903137
10
37.350454226366288
20
-53.124886253806231
0
LWPOLYLINE
5
122
100
AcDbEntity
8
0
100
AcDbPolyline
90
4
70
1
43
0.0
10
39.275763712647283
20
-38.831201880105837
10
43.375735112881713
20
-42.189807917922657
10
49.902837412789879
20
-34.221938970297224
10
45.802866012555434
20
-30.863332932480397
0
LWPOLYLINE
5
123
100
AcDbEntity
8
0
100
AcDbPolyline
90
4
70
1
43
0.0
10
46.363658331115545
20
-29.896815000672873
10
51.113088416684519
20
-20.757180770448315
10
46.410169832200047
20
-18.313299270107013
10
41.660739746631066
20
-27.452933500331561
0
ENDSEC
0
SECTION
2
OBJECTS
0
DICTIONARY
5
C
100
AcDbDictionary
3
ACAD_GROUP
350
D
3
ACAD_MLINESTYLE
350
17
0
DICTIONARY
5
D
100
AcDbDictionary
0
DICTIONARY
5
1A
330
C
100
AcDbDictionary
0
DICTIONARY
5
17
100
AcDbDictionary
0
ENDSEC
0
EOF
