0
SECTION
2
HEADER
9
$INSUNITS
70
4
9
$ACADVER
1
AC1014
9
$HANDSEED
5
FFFF
0
ENDSEC
0
SECTION
2
TABLES
0
TABLE
2
VPORT
5
8
100
AcDbSymbolTable
0
ENDTAB
0
TABLE
2
LTYPE
5
5
100
AcDbSymbolTable
0
LTYPE
5
14
100
AcDbSymbolTableRecord
100
AcDbLinetypeTableRecord
2
BYBLOCK
70
0
0
LTYPE
5
15
100
AcDbSymbolTableRecord
100
AcDbLinetypeTableRecord
2
BYLAYER
70
0
0
ENDTAB
0
TABLE
2
LAYER
5
2
100
AcDbSymbolTable
70
2
0
LAYER
5
50
100
AcDbSymbolTableRecord
100
AcDbLayerTableRecord
2
0
70
0
6
CONTINUOUS
0
ENDTAB
0
TABLE
2
STYLE
5
3
100
AcDbSymbolTable
70
1
0
STYLE
5
11
100
AcDbSymbolTableRecord
100
AcDbTextStyleTableRecord
2
STANDARD
70
0
0
ENDTAB
0
TABLE
2
VIEW
5
6
100
AcDbSymbolTable
70
0
0
ENDTAB
0
TABLE
2
UCS
5
7
100
AcDbSymbolTable
70
0
0
ENDTAB
0
TABLE
2
APPID
5
9
100
AcDbSymbolTable
70
2
0
APPID
5
12
100
AcDbSymbolTableRecord
100
AcDbRegAppTableRecord
2
ACAD
70
0
0
ENDTAB
0
TABLE
2
DIMSTYLE
5
A
100
AcDbSymbolTable
70
1
0
ENDTAB
0
TABLE
2
BLOCK_RECORD
5
1
100
AcDbSymbolTable
70
1
0
BLOCK_RECORD
5
1F
100
AcDbSymbolTableRecord
100
AcDbBlockTableRecord
2
*MODEL_SPACE
0
BLOCK_RECORD
5
1B
100
AcDbSymbolTableRecord
100
AcDbBlockTableRecord
2
*PAPER_SPACE
0
ENDTAB
0
ENDSEC
0
SECTION
2
BLOCKS
0
BLOCK
5
20
100
AcDbEntity
100
AcDbBlockBegin
2
*MODEL_SPACE
0
ENDBLK
5
21
100
AcDbEntity
100
AcDbBlockEnd
0
BLOCK
5
1C
100
AcDbEntity
100
AcDbBlockBegin
2
*PAPER_SPACE
0
ENDBLK
5
1D
100
AcDbEntity
100
AcDbBlockEnd
0
ENDSEC
0
SECTION
2
ENTITIES
0
LWPOLYLINE
5
100
100
AcDbEntity
8
0
100
AcDbPolyline
90
4
70
1
43
0.0
10
69.419230769230779
20
-34.503846153846155
10
74.31153846153849
20
-36.542307692307688
10
78.273076923076928
20
-27.034615384615392
10
73.380769230769232
20
-24.996153846153845
0
LWPOLYLINE
5
101
100
AcDbEntity
8
0
100
AcDbPolyline
90
4
70
1
43
0.0
10
72.295444193972088
20
-12.440774558161902
10
69.840356643629249
20
-22.443901325335844
10
74.987596630621695
20
-23.707198802696713
10
77.442684180964505
20
-13.704072035522776
0
LWPOLYLINE
5
102
100
AcDbEntity
8
0
100
AcDbPolyline
90
4
70
1
43
0.0
10
74.467710840086397
20
-1.0001772425854751
10
69.185796926836943
20
-0.56270105692312733
10
68.335607358474249
20
-10.827552624181529
10
73.617521271723732
20
-11.265028809843876
0
LWPOLYLINE
5
103
100
AcDbEntity
8
0
100
AcDbPolyline
90
4
70
1
43
0.0
10
69.34554604666414
20
11.230963651604803
10
64.065677003434772
20
10.769462962170376
10
64.962555701769602
20
0.50858538759259497
10
70.242424744998942
20
0.97008607702702143
0
LWPOLYLINE
5
104
100
AcDbEntity
8
0
100
AcDbPolyline
90
4
70
1
43
0.0
10
57.280118122745101
20
20.8632973622916
10
59.974971738135885
20
10.922081944063535
10
65.090354429068768
20
12.308754192759759
10
62.39550081367797
20
22.249969610987822
0
LWPOLYLINE
5
105
100
AcDbEntity
8
0
100
AcDbPolyline
90
4
70
1
43
0.0
10
58.065085314331533
20
22.962193068390778
10
53.500216326650971
20
32.195392466503677
10
48.749152558689993
20
29.846479298085526
10
53.314021546370533
20
20.613279899972628
0
LWPOLYLINE
5
106
100
AcDbEntity
8
0
100
AcDbPolyline
90
4
70
1
43
0.0
10
39.008392868370507
20
37.129668500020685
10
45.363720051549656
20
29.024126174257155
10
49.534533092961972
20
32.294343074339629
10
43.179205909782816
20
40.399885400103173
0
LWPOLYLINE
5
107
100
AcDbEntity
8
0
100
AcDbPolyline
90
4
70
1
43
0.0
10
39.716581796193651
20
40.109288252021997
10
31.766942839632048
20
46.658581378789066
10
28.396918221004327
20
42.567990459393279
10
36.346557177565934
20
36.018697332626239
0
LWPOLYLINE
5
108
100
AcDbEntity
8
0
100
AcDbPolyline
90
4
70
1
43
0.0
10
28.381856141802402
20
46.427981950040113
10
19.124840624473197
20
50.944359227452424
10
16.800879501144529
20
46.181040563195651
10
26.05789501847374
20
41.66466328578332
0
LWPOLYLINE
5
109
100
AcDbEntity
8
0
100
AcDbPolyline
90
4
70
1
43
0.0
10
5.1161923858769516
20
47.689964458513437
10
15.180251987982462
20
45.498000880972064
10
16.308155576426078
20
50.676594656812775
10
6.2440959743205742
20
52.86855823435414
0
LWPOLYLINE
5
110
100
AcDbEntity
8
0
100
AcDbPolyline
90
4
70
1
43
0.0
10
3.6174440618435688
20
47.499263926529942
10
3.4462297636599266
20
52.796497701255909
10
-6.8483943645810985
20
52.46376048025752
10
-6.6771800663974563
20
47.166526705531538
0
LWPOLYLINE
5
111
100
AcDbEntity
8
0
100
AcDbPolyline
90
4
70
1
43
0.0
10
-8.1943268153075906
20
47.490220092200097
10
-9.648484761150641
20
52.58682922656989
10
-19.553215720397578
20
49.760824162006976
10
-18.099057774554531
20
44.664215027637198
0
LWPOLYLINE
5
112
100
AcDbEntity
8
0
100
AcDbPolyline
90
4
70
1
43
0.0
10
-19.773784996692171
20
45.464526948844153
10
-22.381049527930934
20
50.078871069533939
10
-31.348548479460131
20
45.011923018258599
10
-28.741283948221358
20
40.39757889756882
0
LWPOLYLINE
5
113
100
AcDbEntity
8
0
100
AcDbPolyline
90
4
70
1
43
0.0
10
-42.318228535201243
20
38.279830796418622
10
-38.724637121844175
20
34.384179277885906
10
-31.153842661299443
20
41.367951269881722
10
-34.747434074656518
20
45.263602788414438
0
LWPOLYLINE
5
114
100
AcDbEntity
8
0
100
AcDbPolyline
90
4
70
1
43
0.0
10
-41.475926179993728
20
35.520028984789811
10
-45.808650818835346
20
38.572486552713542
10
-51.740785337630498
20
30.152285839493018
10
-47.408060698788873
20
27.099828271569312
0
LWPOLYLINE
5
115
100
AcDbEntity
8
0
100
AcDbPolyline
90
4
70
1
43
0.0
10
-54.997910721033392
20
18.453180066830967
10
-50.867546859791453
20
27.888756062696114
10
-55.722746158634678
20
30.014088923335173
10
-59.85311001987661
20
20.578512927470026
0
LWPOLYLINE
5
116
100
AcDbEntity
8
0
100
AcDbPolyline
90
4
70
1
43
0.0
10
-66.445218196918688
20
9.7435950341777797
10
-61.275712703444725
20
8.5747439089515964
10
-59.004171837439131
20
18.621141377400999
10
-64.173677330913108
20
19.789992502627186
0
LWPOLYLINE
5
117
100
AcDbEntity
8
0
100
AcDbPolyline
90
4
70
1
43
0.0
10
-71.310468281464949
20
-2.1673553697466601
10
-66.01511220958615
20
-2.3891752787179237
10
-65.584028235547649
20
7.9017997288956483
10
-70.879384307426477
20
8.1236196378669128
0
LWPOLYLINE
5
118
100
AcDbEntity
8
0
100
AcDbPolyline
90
4
70
1
43
0.0
10
-70.186268087344359
20
-3.6026530521026516
10
-75.445159639008935
20
-4.2614850851968704
10
-74.164787952052222
20
-14.481595081828008
10
-68.905896400387661
20
-13.822763048733787
0
LWPOLYLINE
5
119
100
AcDbEntity
8
0
100
AcDbPolyline
90
4
70
1
43
0.0
10
-72.770792116390922
20
-15.570283602191942
10
-77.864321098891608
20
-17.035194010519199
10
-75.017419739312217
20
-26.933939014246945
10
-69.923890756811531
20
-25.469028605919689
0
LWPOLYLINE
5
120
100
AcDbEntity
8
0
100
AcDbPolyline
90
4
70
1
43
0.0
10
-69.000842677458962
20
-37.486027796593291
10
-73.313611633880328
20
-28.13241758830857
10
-78.126634362415189
20
-30.351609381418591
10
-73.813865405993809
20
-39.705219589703312
0
LWPOLYLINE
5
121
100
AcDbEntity
8
0
100
AcDbPolyline
90
4
70
1
43
0.0
10
-71.715667416871554
20
-40.505614054206227
10
-76.158453098877999
20
-43.395537129957305
10
-70.542187498833471
20
-52.029630059139649
10
-66.099401816827026
20
-49.139706983388564
0
LWPOLYLINE
5
122
100
AcDbEntity
8
0
100
AcDbPolyline
90
4
70
1
43
0.0
10
-61.300965824026228
20
-60.124795773876741
10
-68.059254182854232
20
-52.352052470580936
10
-72.058821125326816
20
-55.829618325123498
10
-65.300532766498819
20
-63.602361628419295
0
LWPOLYLINE
5
123
100
AcDbEntity
8
0
100
AcDbPolyline
90
4
70
1
43
0.0
10
-58.513773633378925
20
-73.773630767311346
10
-54.998075082221753
20
-69.80754154776632
10
-62.705757905111113
20
-62.975146250234424
10
-66.221456456268314
20
-66.941235469779429
0
LWPOLYLINE
5
124
100
AcDbEntity
8
0
100
AcDbPolyline
90
4
70
1
43
0.0
10
-55.718460949207973
20
-72.541286821312355
10
-58.705150006484203
20
-76.919607101413675
10
-50.196338896098652
20
-82.723927344799563
10
-47.209649838822429
20
-78.345607064698243
0
LWPOLYLINE
5
125
100
AcDbEntity
8
0
100
AcDbPolyline
90
4
70
1
43
0.0
10
-49.716555152274253
20
-85.524572393724441
10
-40.554404596666814
20
-90.230419522178806
10
-38.132949278141751
20
-85.515914867351697
10
-47.295099833749177
20
-80.810067738897288
0
LWPOLYLINE
5
126
100
AcDbEntity
8
0
100
AcDbPolyline
90
4
70
1
43
0.0
10
-28.00011843989861
20
-91.127423714367239
10
-37.66802375693193
20
-87.574733637695914
10
-39.496107000267671
20
-92.549481033839257
10
-29.828201683234358
20
-96.102171110510582
0
LWPOLYLINE
5
127
100
AcDbEntity
8
0
100
AcDbPolyline
90
4
70
1
43
0.0
10
-28.312901099535736
20
-97.826795488716073
10
-18.286798904942017
20
-100.186302806688
10
-17.072683488898207
20
-95.027240512382491
10
-27.098785683491926
20
-92.667733194410559
0
LWPOLYLINE
5
128
100
AcDbEntity
8
0
100
AcDbPolyline
90
4
70
1
43
0.0
10
-15.871650592917
20
-95.965240676697462
10
-16.458401220575315
20
-101.23266164914142
10
-6.2217151797879788
20
-102.37295060477928
10
-5.6349645521296621
20
-97.105529632335276
0
LWPOLYLINE
5
129
100
AcDbEntity
8
0
100
AcDbPolyline
90
4
70
1
43
0.0
10
-4.2392743569275479
20
-102.69025026904185
10
6.0603204224611957
20
-102.59888626963186
10
6.0133078790754713
20
-97.299094781208538
10
-4.2862869003132698
20
-97.39045878061853
0
LWPOLYLINE
5
130
100
AcDbEntity
8
0
100
AcDbPolyline
90
4
70
1
43
0.0
10
17.564893991858142
20
-95.593549613482836
10
7.3500884491216478
20
-96.915573714654911
10
8.0303532778800886
20
-102.17173579004356
10
18.245158820616577
20
-100.84971168887151
0
LWPOLYLINE
5
131
100
AcDbEntity
8
0
100
AcDbPolyline
90
4
70
1
43
0.0
10
20.036927102494012
20
-99.698831797590856
10
30.019275786685789
20
-97.160581465725443
10
28.713185810094856
20
-92.024033113665595
10
18.730837125903076
20
-94.562283445531023
0
LWPOLYLINE
5
132
100
AcDbEntity
8
0
100
AcDbPolyline
90
4
70
1
43
0.0
10
29.558022492356901
20
-90.400865528856201
10
31.475489807001175
20
-95.341849145229673
10
41.077778721840154
20
-91.61545040167573
10
39.160311407195884
20
-86.674466785302272
0
LWPOLYLINE
5
133
100
AcDbEntity
8
0
100
AcDbPolyline
90
4
70
1
43
0.0
10
42.057408734039541
20
-89.217286433539755
10
51.132083333089689
20
-84.344886519600664
10
48.624926095820065
20
-79.6753937647496
10
39.550251496769903
20
-84.547793678688691
0
LWPOLYLINE
5
134
100
AcDbEntity
8
0
100
AcDbPolyline
90
4
70
1
43
0.0
10
48.449957970135713
20
-77.161952988500502
10
51.517508942895105
20
-81.484004703776804
10
59.916967936733968
20
-75.522537718980217
10
56.849416963974576
20
-71.200486003703944
0
LWPOLYLINE
5
135
100
AcDbEntity
8
0
100
AcDbPolyline
90
4
70
1
43
0.0
10
63.606250873387829
20
-61.461856534111575
10
56.029847758794332
20
-68.439543532335122
10
59.620308058851094
20
-72.33808105732011
10
67.196711173444598
20
-65.360394059096564
0
LWPOLYLINE
5
136
100
AcDbEntity
8
0
100
AcDbPolyline
90
4
70
1
43
0.0
10
72.770014028232808
20
-54.103054331220683
10
68.703200647001893
20
-50.704373863415391
10
62.098217851078431
20
-58.607803642033964
10
66.165031232309346
20
-62.006484109839263
0
LWPOLYLINE
5
137
100
AcDbEntity
8
0
100
AcDbPolyline
90
4
70
1
43
0.0
10
72.072414437463593
20
-38.76252378445934
10
66.632448691612396
20
-47.508767131403545
10
71.132942841010859
20
-50.307972806453193
10
76.57290858686207
20
-41.561729459508989
0
ENDSEC
0
SECTION
2
OBJECTS
0
DICTIONARY
5
C
100
AcDbDictionary
3
ACAD_GROUP
350
D
3
ACAD_MLINESTYLE
350
17
0
DICTIONARY
5
D
100
AcDbDictionary
0
DICTIONARY
5
1A
330
C
100
AcDbDictionary
0
DICTIONARY
5
17
100
AcDbDictionary
0
ENDSEC
0
EOF
